<svg xmlns="http://www.w3.org/2000/svg" width="1920" height="342"><path fill="#F4F3F4" d="M925 49q12.88-.1 25.77-.16 5.99-.01 11.97-.07 5.8-.05 11.6-.05l4.37-.04c16.27-.17 33.68 1.14 46.29 12.63 6.41 7.16 8.09 15.25 8 24.69-.6 8.07-4.18 14.66-10.27 19.98-5.52 4.07-11.26 6.8-17.73 9.02l1.1 1.15c4.99 5.42 9.13 11.32 13.33 17.33a496 496 0 0 0 11.73 16.2c3.37 4.25 5.54 5.79 10.84 7.32v4c-9.28 1.2-17.96 1.66-26.44-2.81-4.67-4-7.87-9.03-11.22-14.14l-10.81-16.37-1.24-1.9c-3.63-5.67-3.63-5.67-9.29-8.78a176 176 0 0 0-6.64-.32l-12.2-.37L954 116a2855 2855 0 0 0 .42 19.17q.07 3.5.17 7l.03 2.2c.1 3.65.24 6.59 2.38 9.63 2.16 1.12 2.16 1.12 4.63 1.75l2.47.73 1.9.52v4h-41v-4l1.9-.59 2.48-.78 2.46-.78c2.32-.75 2.32-.75 4.16-2.85 1.26-4.32 1.15-8.72 1.15-13.18v-2.46l.03-13.6v-11.7q0-7.49.04-14.97l.02-17.05V71.3l.02-2.29c-.03-4.37-.42-8.03-2.26-12.02-3.38-1.9-3.38-1.9-7-3l-3-1zm31.14 7.4c-2.1 2.96-2.26 4.83-2.25 8.42v3.03l.01 3.28v3.36l.05 17.83L954 110q7.81.15 15.63.22l5.3.08c11.77.23 22.04.2 32-6.92 6.06-5.87 7.31-12.83 7.5-21-.26-8.85-1.9-15-8.43-21.38-9.32-6.2-19.94-6.35-30.76-6.32q-3.2 0-6.4-.04h-4.08l-3.72-.01c-3.02.11-3.02.11-4.9 1.77m-101.08-8.65 3.53-.06c16.66-.08 30.86 4.87 42.93 16.56 11.66 12.94 14.46 29.04 13.86 45.9-.9 14.5-6.47 28.95-17.38 38.85-16.55 12.73-35.83 15.52-56 13-14.21-2.32-27.48-8.85-36.2-20.63-7.72-11.42-10.37-23.1-10.24-36.8l.03-3.32c.16-8.09.98-14.84 4.41-22.25l1.29-2.9c6.28-12.78 16.7-20.84 30.02-25.41 8.05-2.55 15.35-2.9 23.75-2.94m-31.25 19.88c-10.9 15.62-11.83 35.85-8.75 54.12 2.7 11.74 7.61 22.4 17.94 29.25 10.86 5.94 23.3 6.67 35.38 4.35 10.05-3.34 17.85-9.9 22.62-19.35 6.85-17.24 8.19-39.2 2.32-56.94-4.73-10.96-11.2-18.6-22.2-23.5-16.75-5.45-35.96-1.82-47.3 12.06M1336 49q13.1-.1 26.21-.16 6.09-.01 12.18-.07 5.9-.05 11.79-.05l4.46-.04c16.57-.17 32.94 1.53 45.6 13.38 6.92 7.65 9.31 17.37 9 27.53-1.12 11.07-4.75 19.82-13.24 27.16-10.53 7.67-22.99 9.42-35.65 9.35l-17.12-.05L1365 126q.09 6.13.25 12.25l.04 3.51.1 3.38.06 3.11c.69 3.45 1.8 4.61 4.55 6.75 3.64 1.28 3.64 1.28 7 2v4h-41v-4l1.9-.55 2.47-.76 2.47-.74c2.5-.86 2.5-.86 4.16-3.95.2-2.94.3-5.78.3-8.72l.01-2.7.03-8.86q0-3.08.02-6.14l.01-12.9q0-8.25.06-16.52.03-6.34.03-12.7l.02-6.1q.03-4.25 0-8.5l.04-2.56c-.04-3.6-.17-5.82-2.32-8.78-2.9-2-5.78-2.73-9.2-3.52zm30.32 7.65c-1.68 2.99-1.68 4.98-1.66 8.4v3.7l.05 3.98.01 4.09q.02 5.37.07 10.73.05 5.48.06 10.96.06 10.75.15 21.49 7.63.11 15.26.16l5.18.07c17.47.34 17.47.34 32.8-7.35 8-8.55 8.2-19.1 8.04-30.08-.33-8.52-3-15.95-9.28-21.8-7.28-4.71-15.32-6.3-23.9-6.34l-2.16-.02-4.48-.01q-3.42-.01-6.86-.08l-4.37-.01-3.99-.03c-3.24.17-3.24.17-4.92 2.14m-592.19.66c2.69 3.87 2.48 6.05 1.87 10.69-3.03 2.02-5.04 2.77-8.7 2.72-4.3-1.34-6.87-5-9.86-8.24-5.95-6.06-13.96-8.35-22.33-8.55-8.81.38-16.34 2.85-22.61 9.26-4.01 5.23-4.78 11.07-4.12 17.5 4.23 8.63 12.04 11.8 20.73 14.78 5.82 1.88 11.73 3.43 17.64 5.03 25.74 7 25.74 7 32.34 18.37 3.22 7.36 2.82 15.54.01 22.97-4.94 9.7-13.96 14.94-23.95 18.3-18.63 5.04-40.7 4.48-57.91-4.7-3.52-2.27-6.23-4.74-8.24-8.44-.55-3.64-.73-5.74 1.13-8.94 2.83-1.6 4.65-1.5 7.87-1.06 3.99 2.13 6.95 4.87 10.25 7.94 10.05 9.13 20.42 10.78 33.54 10.24A29 29 0 0 0 761 146c2.66-4.79 3.6-8.55 3-14-1.86-5.47-5.18-8.1-10-11a68 68 0 0 0-8.12-2.94l-2.33-.75a401 401 0 0 0-15.7-4.56c-26.32-7.24-26.32-7.24-32.6-17.81l-1.23-2.04c-3.52-6.57-3.14-16.63-1.27-23.78A42 42 0 0 1 696 63l1.69-2.69c18.53-18.53 55.89-18.2 76.43-3m905.73-8.41 6.15.1a1518 1518 0 0 1 19.63 40.4q7.16 15.09 14.18 30.22a5068 5068 0 0 0 11.69 24.94l1.66 3.5A23.4 23.4 0 0 0 1743 157v4h-41v-4l1.93-.62 2.5-.82 2.5-.8c2.03-.58 2.03-.58 3.07-1.76.48-9.6.48-9.6-9-27l-50-1-1 5q-1 2.36-2.06 4.69c-2.1 5.14-3.05 9.8-1.94 15.31 2.57 3.86 4.95 5.17 9.31 6.31l3.69.69v4h-39v-4l2.63-.94c8.63-5.27 12.05-16.58 15.92-25.52q2.62-6.06 5.29-12.1l1.07-2.45q4.73-10.71 9.71-21.3 5.21-11.1 10.26-22.28l.98-2.18 6.44-14.34 1.5-3.38c1.66-3.48 1.66-3.48 4.05-3.6M1677 70c-4.04 7.7-7.48 15.6-10.82 23.61l-4.32 10.28-1.52 3.63A123 123 0 0 0 1657 118h43a3301 3301 0 0 0-22-48zm-411-21h9a2405 2405 0 0 1 21.44 44.81l1.56 3.38 1.6 3.45a4762 4762 0 0 0 12.85 27.6c6.65 17.21 6.65 17.21 19.55 28.76v4h-41v-4l10-3c.66-6.71-1.6-11.34-4.5-17.31q-1.28-2.69-2.53-5.37l-1.14-2.37C1292 127 1292 127 1292 125h-50l-3 9-1.69 4.69c-1.42 4.28-2.09 7.95-.64 12.34 1.87 2.77 3.81 3.2 6.95 4.22l3.04 1.02 2.34.73v4h-39v-4l1.62-.65c5.36-2.36 7.6-4.35 10.07-9.85l.96-2.08q1.09-2.37 2.15-4.75 1.97-4.36 4.03-8.69c7-14.84 13.7-29.82 20.33-44.83Q1257.42 67.5 1266 49m-1 21-14.75 34.86-1.24 2.94-1.15 2.73-1.02 2.4A84 84 0 0 0 1245 118h43c-1.43-4.3-2.9-8.14-4.8-12.22l-5.16-11.07A685 685 0 0 0 1266 70zM614 49h9a1166 1166 0 0 1 17.56 36.27l4.28 9.12q4.8 10.25 9.64 20.51l5.72 12.13q2.49 5.26 4.87 10.57l1.06 2.32 1.97 4.4c2.6 5.7 5.9 10.24 11.9 12.68v4h-41v-4l1.93-.59 2.5-.78 2.5-.78c2.25-.66 2.25-.66 3.07-2.85.83-6.07-1.84-10.5-4.5-15.75q-1.28-2.55-2.53-5.1l-1.14-2.27C640 127 640 127 640 125h-50l-3 9-.98 2.82c-1.68 5.04-2.7 8.95-1.02 14.18 3.5 3.82 7.11 4.85 12 6v4h-39v-4l3.19-1c6.82-2.92 9.65-11.35 12.62-17.75l1.12-2.38c4.42-9.49 8.62-19.08 12.86-28.66q7.73-17.52 15.87-34.85c3.63-7.72 7.02-15.5 10.34-23.36m0 21a370 370 0 0 0-12.43 26.84l-2.89 6.75-1.83 4.32-.87 2.03c-1.2 2.86-1.98 4.92-1.98 8.06h42a149 149 0 0 0-6.94-17.65L627.94 98l-2.32-4.89a2209 2209 0 0 1-5.81-12.25l-1.07-2.25A68 68 0 0 0 614 70M254.85 48.9l6.15.1a1385 1385 0 0 1 18.84 38.83 10035 10035 0 0 1 17.77 37.78q2.24 4.77 4.5 9.53 1.36 2.87 2.69 5.76l1.78 3.76 1.56 3.33A23 23 0 0 0 318 157v4h-41v-4l1.93-.62 2.5-.82 2.5-.8c2.03-.58 2.03-.58 3.07-1.76.48-9.6.48-9.6-9-27l-50-1-3 10-1.16 2.78c-1.62 4.28-1.5 8.74-.84 13.22 3.21 4 7.18 4.87 12 6v4h-38v-4l2.69-1.06c6.15-3.6 8.86-9.64 11.63-16.06l.9-2.05 1.91-4.4q2.6-6.01 5.26-12.02l1.12-2.55c5.08-11.52 10.43-22.93 15.75-34.35l2.27-4.85 1.1-2.37q4.87-10.5 9.54-21.08l1.08-2.42.95-2.15c1.27-2.61 1.27-2.61 3.65-2.74M252 70c-4.5 8.43-8.13 17.2-11.79 26.03l-5.1 12.25-.95 2.26c-1.6 3.6-1.6 3.6-2.16 7.46h42c-.7-3.54-1.15-5.69-2.63-8.76l-1-2.12-1.08-2.24-1.12-2.35-3.55-7.4-5.71-11.98A299 299 0 0 1 253 70zM79 49h41v4l-10 3c-.27 5.74.2 9.43 2.68 14.73l.87 1.9 2.89 6.12 2 4.32q2.7 5.77 5.42 11.52l4.64 9.88q4.99 10.62 10.02 21.23l.93 1.97q2.7 5.7 5.55 11.33a4165 4165 0 0 0 26.37-62.1l1.47-3.54c1.62-4.7 2.59-8.68 1.35-13.55-3.22-4.14-7.3-5.25-12.19-6.81v-4h38l-1 5-2.79 1.33c-4.36 2.27-5.53 5-7.62 9.31l-1.16 2.3a440 440 0 0 0-9.98 21.62q-2.53 5.82-5.1 11.62l-1.07 2.43c-4.7 10.67-9.62 21.25-14.52 31.83Q150.65 147.62 145 161h-9a1826 1826 0 0 1-27.56-57.06l-1.62-3.48q-4.1-8.84-8.1-17.72l-1.6-3.56q-1.5-3.31-2.99-6.66C88.63 60.35 88.63 60.35 78 53zm1112 9c3.83 3.3 6.45 6.36 8.06 11.19-.1 4.23-1.07 6.82-4.06 9.81-6.95.8-6.95.8-10.56-1.94a196 196 0 0 1-4.02-5.19c-6.54-8.72-13.53-14.5-24.42-16.87-11.01-1.08-20.69-.3-29.75 6.63-9.56 9.06-13.05 21.66-13.6 34.47l-.09 6.59-.03 3.13c.15 13.33 3.58 25.97 12.66 36.06 9.33 8.66 20.8 9.58 32.83 9.4 14.15-.54 25.76-6.45 35.48-16.55 1.57-1.67 1.57-1.67 2.5-3.73l5 1 1 3c-7.61 13.09-20.05 22.2-34.45 26.25-17.07 3.62-35.32 1.8-50.6-7-13-8.88-20.29-21.32-23.44-36.6-2.54-18.22.3-35.33 10.86-50.63 19.32-24.73 62.03-25.1 86.63-9.02m-756-9h41v4l-1.93.84-2.5 1.1-2.5 1.09c-2.01.8-2.01.8-3.07 1.97-.43 4.9.62 8.03 2.75 12.43q.45.9.89 1.85l1.91 3.97q2.6 5.32 5.13 10.68l1.07 2.24c4.27 8.92 8.33 17.93 12.4 26.95l2.7 6 .85 1.87q2.24 4.95 4.73 9.76C500 137 500 137 500 140h2l.4-2.23a39 39 0 0 1 2.33-7.17l1.07-2.54 1.17-2.72 1.22-2.87 6.4-15.05 1.26-2.95 2.5-5.89q2.95-7 6.02-13.96l1.12-2.57 2.08-4.7c2.5-5.77 4.41-11.95 2.62-18.16-3.42-3.42-7.67-4.67-12.19-6.19v-4h38l-1 5-6 3c-2 2.58-2 2.58-3.56 5.88l-1 1.95c-4.83 9.7-9.11 19.65-13.5 29.55-4.59 10.35-9.28 20.65-13.96 30.97A4411 4411 0 0 0 501 161h-9a1293 1293 0 0 1-18.34-37.83 8416 8416 0 0 1-15.97-34.08q-3.62-7.72-7.12-15.48l-1.09-2.38-1.82-4.1C444.89 61.06 441.2 55.74 435 53zm1072.55-.13 2.91-.02h6.56l18.69-.03h16.04l18.55-.03a6962 6962 0 0 1 25.44-.03h10.6l3.2-.02 2.9.01h2.54C1617 49 1617 49 1619 51c.23 6.29-1.8 12.6-3.56 18.56l-.71 2.48L1613 78l-4-1-.08-2.2c-.41-7.02-1.39-11.4-6.62-16.44-3.18-1.88-5.57-1.7-9.25-1.65l-2 .01q-3.15.03-6.3.1-2.14 0-4.28.03-5.24.06-10.47.15c-2.2 4.42-2.28 8.55-2.26 13.38v2.52q-.02 4.1 0 8.23l-.01 5.72v12q.02 7.68 0 15.36a3754 3754 0 0 0 0 17.49l.01 7.92-.01 2.36c.04 5.3.44 9.2 4.27 13.02 1.97.67 1.97.67 4.13 1.13l3.87.87v4h-42v-4l1.9-.59 2.48-.78 2.46-.78c2.32-.75 2.32-.75 4.16-2.85 1.31-4.02 1.15-8.08 1.15-12.27v-2.52l.03-13.97v-12.01q0-7.7.04-15.39l.02-17.5V70.4l.02-2.36c-.02-4.12-.41-7.33-2.26-11.04q-6.03-.18-12.06-.27l-4.1-.1c-8.87-.65-8.87-.65-16.69 2.75-4.46 5.43-4.65 10.81-5.15 17.62l-4 1q-1.55-5.87-3.06-11.75l-.9-3.37-.83-3.24-.77-2.98c-.44-2.67-.46-4.18.56-6.66 2.4-1.2 3.88-1.13 6.55-1.13M1219 208q10.72-.12 21.45-.16l7.28-.07c36.28-.38 36.28-.38 47.01 9.9 5.28 5.71 6.71 11.1 6.5 18.81-.64 6.73-3.2 11.3-8.12 15.91-3.73 2.84-7.87 4.7-12.12 6.61l2.56 3.55 1.66 2.3 3.58 4.94c2.59 3.57 5.17 7.13 7.63 10.78l2 2.93 1.7 2.53c2.37 2.5 4.57 3.12 7.87 3.97v4q-3.5.15-7 .25l-3.94.14A19.8 19.8 0 0 1 1285 290a82 82 0 0 1-7.19-10.31l-3.54-5.55-1.68-2.66c-3.5-6.08-3.5-6.08-8.59-10.48q-2.6-.22-5.23-.32l-3.12-.12-3.28-.12-3.3-.13-8.07-.31q.13 6.4.31 12.81l.07 3.68.1 3.53.09 3.25c.21 2.74.21 2.74 1.8 4.56 2.13 1.52 4.06 1.82 6.63 2.17v4h-31l-1-4 3.38-.81c3.84-.85 3.84-.85 5.62-4.19.32-3.03.32-3.03.3-6.52l.01-2 .03-6.5q0-2.28.02-4.54l.01-9.5q0-6.09.06-12.17l.03-9.36q0-2.25.02-4.49.03-3.13 0-6.27l.01-3.6c-.6-3.67-1.57-4.83-4.49-7.05-2.64-.8-2.64-.8-5-1zm24 5c-2.62 3.93-2.25 7.27-2.2 11.82l.01 2.61q.02 4.13.07 8.26l.02 5.6q.03 6.86.1 13.71 6.23.09 12.44.13l3.53.05c12.67.28 12.67.28 23.47-5.5l1.93-1.73c3.6-4.3 3.92-8.4 3.94-13.89l.05-3.59c-.55-5.24-2.52-9.23-6.48-12.72l-1.58-1.45c-7.17-4.04-15.74-3.64-23.74-3.61l-3.3-.05h-3.13l-2.84-.01zm-496-5q10.72-.12 21.45-.16l7.28-.07c35.95-.37 35.95-.37 47.27 9.23 5.81 7.1 6.8 13.98 6 23-1.76 6.65-6.44 11.19-12 15a195 195 0 0 1-8 4l1.17 1.59 7.34 9.92c3.3 4.44 6.47 8.92 9.49 13.55 2.15 3.14 2.85 3.87 6.44 5.56 1.27.2 1.27.2 2.56.38v4q-3.5.15-7 .25l-3.94.14c-5.25-.23-9.87-2.04-13.5-5.93A69 69 0 0 1 808 283l-2.54-4.01-1.24-2.02a370 370 0 0 0-5.66-8.78l-1.87-2.9c-1.65-2.51-1.65-2.51-4.69-4.29-2.52-.37-2.52-.37-5.32-.41l-2.81-.11-3.56-.1c-5.6-.2-5.6-.2-11.31-.38l1 28 8 2v4h-31v-4l3.44-.87L754 288c1.44-2.88 1.15-5.39 1.18-8.6l.06-8.8.01-2.33.05-12.16q.01-6.3.08-12.59l.04-9.66q0-2.33.03-4.64.04-3.24.02-6.49l.02-3.73c-.2-3.08-.2-3.08-2.38-4.88A20 20 0 0 0 747 212zm22 8a82 82 0 0 0-.3 8.82l.02 2.61q.03 4.13.1 8.26l.03 5.6L769 255q6.44.13 12.88.19l3.64.07c8.16.07 16.29.03 22.95-5.2l1.6-2.06 1.65-2.06c3.64-5.52 2.78-12.62 2.28-18.94-1.23-4.6-3.14-7.24-6.69-10.37-7.72-3.8-15.71-3.97-24.18-3.94l-3.13-.05h-3l-2.7-.01c-2.82.45-3.53 1.16-5.3 3.37m978-167h41v4l-2.15.52-2.79.73-2.77.7L1778 56c-1.4 4.04-1.15 8.24-1.15 12.47v2.58l-.03 14.32v12.31q0 7.89-.04 15.78l-.02 17.94v8.13l-.02 2.43c.02 5.33.02 5.33 2.26 10.04 4.9 3.62 12.08 2.33 17.9 2.32q3.4 0 6.77.04c12.43.15 12.43.15 23.45-4.97 5.41-7 6.19-12.68 5.88-21.39h4l1.85 9.7c2.3 12.17 2.3 12.17 2.28 18.18v2.3C1841 160 1841 160 1840 161q-4.33.14-8.65.11h-2.75l-15.3-.02-16.48-.02-16.81-.02L1747 161v-4l1.9-.55 2.47-.76 2.47-.74c2.5-.86 2.5-.86 4.16-3.95.2-2.94.3-5.78.3-8.72l.01-2.7.03-8.86q0-3.08.02-6.14l.01-12.9q0-8.25.06-16.52.03-6.34.03-12.7l.02-6.1q.03-4.25 0-8.5l.04-2.56c-.04-3.6-.17-5.82-2.32-8.78-2.9-2-5.78-2.73-9.2-3.52zM990 208c14.74-1.36 14.74-1.36 19.52 1.51A63 63 0 0 1 1015 217q1.85 2.4 3.75 4.78l4.2 5.34c3.27 4.2 6.66 8.29 10.05 12.38q7.8 9.42 15.3 19.06c3.52 4.52 7.12 8.97 10.7 13.44q.15-9.56.22-19.1l.08-6.5q.07-4.68.1-9.36l.05-2.9c0-7.12-1.16-14.24-5.9-19.86-1.64-1.5-1.64-1.5-4.55-2.28v-4h27v4l-2.31 1.13c-4.25 2.96-4.74 6.92-5.69 11.87-.45 5.36-.49 10.7-.51 16.07l-.06 4.6-.1 12-.12 12.3q-.13 12-.21 24.03-2.16.1-4.32.16l-2.44.08c-2.24-.24-2.24-.24-5.07-2.74a90 90 0 0 1-2.42-3.5l-2.8-3.87-1.45-2.06c-2.52-3.48-5.27-6.76-8-10.07a955 955 0 0 1-13.32-16.69 958 958 0 0 0-12.85-15.98l-1.58-1.93-1.4-1.7q-2.22-2.81-4.35-5.7-.12 9.58-.16 19.16l-.07 6.5-.06 9.4-.05 2.9c0 7.12.78 13.84 5.34 19.54 2.03 1.68 2.03 1.68 5 2.5v4h-27v-4l1.81-.56c3.76-2.47 4.73-6.56 5.76-10.8.47-2.9.56-5.64.56-8.58v-50.49c-.02-2.69-.02-2.69-1.13-5.57-3.51-1.23-3.51-1.23-7-2zM339 49h41v4l-1.9.73-2.48 1.02-2.46.98c-2.7 1.58-3.1 2.33-4.16 5.27-.2 2.83-.27 5.55-.26 8.38v2.55q-.02 4.17 0 8.35l-.01 5.8v12.17q.02 7.8 0 15.6a3860 3860 0 0 0 0 17.74l.01 8.03-.01 2.4c.02 5.31.02 5.31 2.27 9.98 5.62 3.18 12.29 2.33 18.55 2.32q3.27 0 6.53.04c8.7.04 16.69-.05 23.8-5.61 5.28-6.84 5.53-12.33 5.12-20.75h4l1.85 9.05c1.22 6.09 2.3 12.1 2.27 18.32l.01 2.6C433 160 433 160 432 161q-4.33.14-8.65.11h-2.75l-15.3-.02-16.48-.02-16.81-.02L339 161v-4l1.9-.59 2.48-.78 2.46-.78c2.32-.75 2.32-.75 4.16-2.85 1.31-4.02 1.15-8.08 1.15-12.27v-2.52l.03-13.97v-12.01q0-7.7.04-15.39l.02-17.5V70.4l.02-2.36c-.02-4.1-.2-7.46-2.26-11.04a71 71 0 0 0-10-4zm166 159a6039 6039 0 0 1 29.6-.15q5.41-.04 10.83-.05l3.36-.03c11.74 0 24.45 1.56 33.23 10.23 5.57 7.17 7.43 14.51 6.8 23.55-1.28 8.35-5.13 14.8-11.95 19.82-10.69 6.23-22.16 6.02-34.12 5.82l-4.6-.04q-5.58-.06-11.15-.15.1 4.38.25 8.75l.04 2.5c.19 5 .19 5 2.59 9.28 2.4 1.66 4.24 2.15 7.12 2.47v4h-32v-4l3.44-.87L512 288c1.44-2.88 1.14-5.38 1.16-8.6l.02-2.06.04-11.42.02-9.81q0-6.3.06-12.59l.02-9.66q0-2.33.03-4.64v-6.49l.02-3.73c-.12-2.97-.12-2.97-1.72-4.88-2.15-1.46-4.1-1.78-6.65-2.12zm23.37 6.74c-1.55 2.56-1.74 3.88-1.71 6.84v2.73l.05 2.92.01 3.01q.03 4.76.1 9.51l.03 6.45q.06 7.9.15 15.8 5.95.11 11.9.16l6 .1c8.2.07 15.72.1 22.44-5.06 6.63-8.1 7.64-15.86 6.66-26.2-1.9-7.96-5.15-11.97-12-16.25-6.4-2.4-13.46-2-20.19-2.06l-3.3-.09-6.06-.07c-2.56.24-2.56.24-4.08 2.21m878.01-2.38c1.97 1.43 3.33 2.57 4.62 4.64-.06 3.88-.06 3.88-1 7-6.24 1.47-6.24 1.47-9.94-.81C1398 221 1398 221 1398 219l-1.75-.87q-2.13-1.06-4.22-2.2c-7.27-3.67-14.51-4.26-22.34-1.87-4.36 1.91-7.26 4.89-9.69 8.94-1.29 4.25-1.17 6.42.06 10.69 3.92 6.7 10.32 8.3 17.38 10.25l5.35 1.56 2.67.77c21.16 6.11 21.16 6.11 27.54 14.3 1.86 6.38 2.6 14.27-.56 20.37-6.7 8.4-14.72 12.74-25.44 14.06-14.21.78-28.27 1.2-40-8-2.58-2.5-2.94-3.53-3.37-7.12l.37-2.88c3-2 3-2 5.86-1.9 3.73 1.07 5.54 2.6 8.39 5.21 7.48 6.35 14.15 9.43 24.07 9.01 7.03-.84 12.13-2.66 16.68-8.32 2.15-2.84 2-4.26 2-7.94-.55-3.3-1.06-4.13-3.37-6.81-5.79-4.07-12.81-5.72-19.5-7.7l-2.65-.77-5.22-1.5c-8.62-2.49-17.78-5.7-22.57-13.78-2.72-5.94-2.77-12.54-1.07-18.8 3.2-7.33 9.28-12.17 16.57-15.14 13.64-4 30.73-3.31 43.18 3.8M1107 208l42.3-.08a6777 6777 0 0 1 24.8-.03l3.97-.01c2.93.12 2.93.12 3.93 1.12-.47 7.24-2.12 14.01-4 21h-4l-.08-2.01c-.35-5.48-.66-9.1-4.92-12.99-5.2-1.74-10.8-1.23-16.25-1.24q-3.26-.02-6.53-.07l-4.15-.02-3.82-.03c-3.53.4-4.96.65-7.25 3.36-.65 3.09-.65 3.09-.6 6.64l-.1 3.54-.05 4.5L1130 246h41v5h-41l.19 16.81.02 5.3.08 4.16v2.18c0 2.33 0 2.33.71 5.55 3.5 3.2 6.74 3.38 11.37 3.4l3.68.01 3.83-.04 3.8.04c7.9-.02 13.24-.36 19.68-5.18 2.17-2.95 2.46-5.36 2.89-8.98l.45-3.55.3-2.7h3c1.93 8.28 3.62 16.45 3 25-1.66 1.66-3.67 1.12-5.88 1.12h-4.34l-12.32-.03-13.3-.02-13.55-.02L1107 294v-4l3.38-.81c3.84-.85 3.84-.85 5.62-4.19.32-3.03.32-3.03.3-6.52l.01-2 .03-6.5q0-2.28.02-4.54l.01-9.5q0-6.09.06-12.17l.03-9.36q0-2.25.02-4.49.03-3.13 0-6.27l.01-3.6c-.6-3.67-1.57-4.83-4.49-7.05-2.64-.8-2.64-.8-5-1zm-437.94-.06 2.94.06q7.48 14.8 14.69 29.75l.9 1.86q5.13 10.59 10.06 21.28l.9 1.93q2.1 4.57 4.19 9.17c3.91 9.59 3.91 9.59 11.01 16.63L716 290v4h-32v-4l7-2c1.07-3.2 1-4.78-.43-7.82l-.97-2.12-1.04-2.19C685 268.21 685 268.21 685 266h-38l-1 5a95 95 0 0 1-1.56 3.94c-1.34 3.49-1.97 6.29-1.44 10.06 2.21 3.64 6.07 4.04 10 5v4h-30v-4l2.27-.57c3.7-1.94 4.8-4.64 6.46-8.3l1.01-2.14q1.64-3.48 3.26-6.99l2.26-4.8a2240 2240 0 0 0 9.63-20.77 2922 2922 0 0 0 14.43-31.6c3.07-6.82 3.07-6.82 6.74-6.9M665 225a4095 4095 0 0 0-9.08 20.21l-1.48 3.29c-1.68 4.09-3.04 8.3-4.44 12.5h32c-3.36-8.41-3.36-8.41-7.02-16.66l-1.6-3.46-1.63-3.5-1.68-3.63L666 225zm790-176h41v4l-1.9.55-4.94 1.5c-2.5.86-2.5.86-4.16 3.95a127 127 0 0 0-.3 8.72l-.01 2.7-.03 8.86q0 3.08-.02 6.14l-.01 12.9q0 8.25-.06 16.52-.03 6.34-.03 12.7l-.02 6.1q-.03 4.25 0 8.5l-.04 2.56c.04 3.6.17 5.82 2.32 8.78 2.9 2 5.78 2.73 9.2 3.52v4h-41v-4l1.9-.55 2.47-.76 2.47-.74c2.5-.86 2.5-.86 4.16-3.95.2-2.9.27-5.72.26-8.63v-2.67q.02-4.38 0-8.76l.01-6.08v-12.75q-.02-8.17 0-16.34a4236 4236 0 0 0 0-18.59l-.01-8.42.01-2.52c.02-5.45.02-5.45-2.27-10.24-2.16-1.12-2.16-1.12-4.62-1.75l-2.48-.73-1.9-.52zM874.7 207.86l2.48.01h45.37a8007 8007 0 0 1 26.27 0h2.48c5.59.02 5.59.02 6.7 1.13.32 5.22-.48 9.45-2 14.44l-1.12 3.74L954 230h-4l.19-3.13c-.2-4.24-.8-6.37-3.19-9.87-5.34-3.59-10.2-3.36-16.37-3.19l-2.81.04q-3.42.06-6.82.15c-1.44 2.88-1.14 5.38-1.16 8.6l-.02 2.06-.04 11.42-.02 9.81q0 6.3-.06 12.59-.03 4.83-.02 9.66 0 2.33-.03 4.64v6.49l-.02 3.73c.12 2.97.12 2.97 1.72 4.88 2.15 1.46 4.1 1.78 6.65 2.12v4h-31l-1-4 3.38-.81c3.84-.85 3.84-.85 5.62-4.19.3-3.03.3-3.03.26-6.54v-2q.02-3.26 0-6.52l.01-4.54v-9.51q-.02-6.1 0-12.2a2360 2360 0 0 0 0-13.87l-.01-6.28v-3.62c-.04-3.11-.04-3.11-2.26-5.92-3.02-.28-5.8-.37-8.81-.31l-2.45-.01c-4.3.04-7.89.19-11.74 2.32-3.92 4.57-4.6 8.2-5 14h-3q-1.01-3.27-2-6.56l-1.12-3.7A35 35 0 0 1 868 209c1.8-1.8 4.29-1.13 6.7-1.14"/></svg>