<?xml version="1.0" encoding="UTF-8"?>
<svg version="1.1" xmlns="http://www.w3.org/2000/svg" width="1920" height="342">
<path d="M0 0 C8.5897362 -0.07009413 17.17934915 -0.12310827 25.76930237 -0.15543652 C29.75971719 -0.1709672 33.74993366 -0.19196901 37.74023438 -0.22631836 C41.60470474 -0.25936916 45.46898665 -0.27694716 49.33358765 -0.28463173 C50.79408732 -0.29009458 52.25457891 -0.30075651 53.71499634 -0.31719017 C69.97509304 -0.49256629 87.38923753 0.82150925 100 12.3125 C106.41029814 19.47327207 108.08850602 27.55514291 108 37 C107.39485476 45.07289505 103.81964491 51.6611035 97.734375 56.98046875 C92.21340625 61.05174916 86.47337401 63.78252507 80 66 C80.36609375 66.38027344 80.7321875 66.76054688 81.109375 67.15234375 C86.0859191 72.56729768 90.23497298 78.46666395 94.43432617 84.48461914 C97.58289418 88.9955055 100.76575232 93.47102181 104.0625 97.875 C104.75472656 98.80054688 105.44695312 99.72609375 106.16015625 100.6796875 C109.52928371 104.92865079 111.7002921 106.46897327 117 108 C117 109.32 117 110.64 117 112 C107.72055907 113.19839202 99.03944215 113.65716041 90.5625 109.1875 C85.8904787 105.19918913 82.68712304 100.15667074 79.33984375 95.0546875 C78.4551301 93.71741353 77.57036289 92.38017499 76.68554688 91.04296875 C75.3063762 88.95242081 73.92836477 86.86111934 72.55151367 84.76904297 C71.21309734 82.73727607 69.87043988 80.70836272 68.52734375 78.6796875 C68.11790024 78.05464325 67.70845673 77.429599 67.28660583 76.78561401 C63.66062286 71.11482549 63.66062286 71.11482549 58 68 C55.79040747 67.84890907 53.57699953 67.75126199 51.36328125 67.68359375 C50.06455078 67.64169922 48.76582031 67.59980469 47.42773438 67.55664062 C46.05599239 67.51683013 44.68424756 67.47711784 43.3125 67.4375 C41.92902355 67.39429165 40.54555973 67.35067661 39.16210938 67.30664062 C35.77484281 67.20041972 32.38750201 67.09837642 29 67 C29.09367845 71.76922298 29.19980386 76.5379469 29.31738281 81.30664062 C29.35562358 82.92830859 29.39048503 84.55005996 29.421875 86.171875 C29.46763257 88.50551117 29.52560816 90.83857562 29.5859375 93.171875 C29.59748871 93.89493835 29.60903992 94.61800171 29.62094116 95.36297607 C29.72762069 99.01603361 29.85804395 101.95676314 32 105 C34.16281282 106.1225649 34.16281282 106.1225649 36.625 106.75 C37.44226563 106.99234375 38.25953125 107.2346875 39.1015625 107.484375 C39.72804688 107.65453125 40.35453125 107.8246875 41 108 C41 109.32 41 110.64 41 112 C27.47 112 13.94 112 0 112 C0 110.68 0 109.36 0 108 C0.62648438 107.80664062 1.25296875 107.61328125 1.8984375 107.4140625 C3.12433594 107.02347656 3.12433594 107.02347656 4.375 106.625 C5.59316406 106.24214844 5.59316406 106.24214844 6.8359375 105.8515625 C9.16459185 105.10145717 9.16459185 105.10145717 11 103 C12.26010084 98.67594829 12.14793368 94.28285587 12.14526367 89.81665039 C12.14862228 89.00625809 12.1519809 88.19586578 12.15544128 87.36091614 C12.16491753 84.68981379 12.16689261 82.01877434 12.16796875 79.34765625 C12.17118325 77.48587519 12.17454747 75.62409438 12.17805481 73.76231384 C12.18403747 69.86277684 12.18589556 65.96326197 12.18530273 62.0637207 C12.18520107 57.07257101 12.19886147 52.08156343 12.21607494 47.09044743 C12.22720437 43.24624482 12.22922166 39.40207649 12.22869301 35.55785942 C12.22987138 33.71790514 12.23428516 31.87794993 12.24202538 30.03801155 C12.25184582 27.46282159 12.24893931 24.88793928 12.24291992 22.31274414 C12.24853943 21.55670898 12.25415894 20.80067383 12.25994873 20.02172852 C12.23404776 15.65099393 11.84474638 11.98844488 10 8 C6.62331906 6.10040371 6.62331906 6.10040371 3 5 C2.01 4.67 1.02 4.34 0 4 C0 2.68 0 1.36 0 0 Z M31.14013672 7.39770508 C29.03522817 10.3558453 28.87745464 12.22694847 28.88647461 15.81689453 C28.88655014 16.81778107 28.88662567 17.8186676 28.88670349 18.84988403 C28.89186478 19.93325043 28.89702606 21.01661682 28.90234375 22.1328125 C28.9037587 23.23978485 28.90517365 24.3467572 28.90663147 25.48727417 C28.91224228 29.03320993 28.92479663 32.57908323 28.9375 36.125 C28.94251361 38.52473867 28.94707675 40.92447833 28.95117188 43.32421875 C28.96221522 49.21616725 28.9789639 55.10807916 29 61 C34.21031273 61.09980707 39.42005385 61.17190561 44.63110352 61.21972656 C46.39910593 61.23968762 48.16704366 61.26686652 49.93481445 61.30175781 C61.69866518 61.52792175 71.97080897 61.49076016 81.9375 54.375 C87.98900923 48.51260043 89.24217042 41.55442625 89.4375 33.375 C89.17033957 24.53198971 87.5250832 18.38008135 81 12 C71.67752831 5.79861839 61.06398496 5.65026849 50.24121094 5.68432617 C48.10822175 5.68752516 45.97657236 5.66381848 43.84375 5.63867188 C42.48177257 5.63640208 41.11979144 5.6356939 39.7578125 5.63671875 C38.5320752 5.63373779 37.30633789 5.63075684 36.04345703 5.62768555 C33.02364 5.74007472 33.02364 5.74007472 31.14013672 7.39770508 Z " fill="#F4F3F4" transform="translate(925,49)"/>
<path d="M0 0 C1.16466797 -0.020625 2.32933594 -0.04125 3.52929688 -0.0625 C20.18542861 -0.13673346 34.38392421 4.80583151 46.4609375 16.5 C58.11272989 29.4382679 60.9208753 45.54329293 60.3203125 62.40625 C59.41165247 76.89909169 53.84431159 91.35191087 42.9375 101.25 C26.38339849 113.97779234 7.1071124 116.77120155 -13.0625 114.25 C-27.27334233 111.92707385 -40.54660625 105.4031563 -49.26757812 93.62207031 C-56.98407011 82.20401237 -59.63376217 70.52206074 -59.5 56.8125 C-59.49242676 55.7179248 -59.48485352 54.62334961 -59.47705078 53.49560547 C-59.31225957 45.41361893 -58.48934881 38.65882577 -55.0625 31.25 C-54.63839844 30.29351562 -54.21429687 29.33703125 -53.77734375 28.3515625 C-47.48920383 15.56509413 -37.06652206 7.50689482 -23.75 2.9375 C-15.70577347 0.39213059 -8.40377154 0.03636029 0 0 Z M-31.25 19.875 C-42.15118783 35.49904577 -43.07965684 55.73117146 -40 74 C-37.29449865 85.74061748 -32.39168866 96.40411035 -22.0625 103.25 C-11.20534049 109.19268281 1.2399216 109.91913065 13.31640625 107.6015625 C23.36252474 104.25761979 31.16250362 97.69808734 35.9375 88.25 C42.7892676 71.01077703 44.12370176 49.04983223 38.2578125 31.30859375 C33.52922009 20.35448766 27.05986318 12.71534922 16.0625 7.8125 C-0.69376484 2.36081383 -19.90248566 5.99301545 -31.25 19.875 Z " fill="#F4F3F4" transform="translate(855.0625,47.75)"/>
<path d="M0 0 C8.73738131 -0.07003372 17.47466349 -0.12307859 26.21226597 -0.15543652 C30.27108863 -0.17097995 34.3297169 -0.19200633 38.38842773 -0.22631836 C42.31773174 -0.25932207 46.24685079 -0.2769377 50.17628288 -0.28463173 C51.6627283 -0.29010275 53.14916555 -0.30078186 54.63553047 -0.31719017 C71.20988539 -0.49259725 87.58070876 1.21198112 100.24609375 13.05859375 C107.15836499 20.70981603 109.55109064 30.43133514 109.24609375 40.5859375 C108.11737043 51.65817581 104.48815668 60.41358205 96 67.75 C85.47066394 75.42392289 73.01057213 77.17359122 60.34765625 77.09765625 C59.44752304 77.0962413 58.54738983 77.09482635 57.61997986 77.09336853 C54.76745163 77.0878066 51.91500419 77.07526127 49.0625 77.0625 C47.11914176 77.05748008 45.17578229 77.05291803 43.23242188 77.04882812 C38.4882505 77.03784966 33.74413891 77.02061153 29 77 C29.05183668 81.0843728 29.1469071 85.16662471 29.25 89.25 C29.26417969 90.40886719 29.27835938 91.56773437 29.29296875 92.76171875 C29.32519531 93.87675781 29.35742188 94.99179688 29.390625 96.140625 C29.41157227 97.16704102 29.43251953 98.19345703 29.45410156 99.25097656 C30.13846805 102.6972944 31.25593208 103.86111558 34 106 C37.63543901 107.27765265 37.63543901 107.27765265 41 108 C41 109.32 41 110.64 41 112 C27.47 112 13.94 112 0 112 C0 110.68 0 109.36 0 108 C0.62648438 107.81824219 1.25296875 107.63648438 1.8984375 107.44921875 C2.71570312 107.19785156 3.53296875 106.94648438 4.375 106.6875 C5.18710938 106.44386719 5.99921875 106.20023437 6.8359375 105.94921875 C9.33184629 105.08631815 9.33184629 105.08631815 11 102 C11.20535958 99.06156294 11.29368711 96.21712249 11.29052734 93.27758789 C11.29724457 92.38624649 11.30396179 91.49490509 11.31088257 90.57655334 C11.32990639 87.62519788 11.33378885 84.67406924 11.3359375 81.72265625 C11.34236193 79.67386277 11.34909002 77.62507022 11.35610962 75.57627869 C11.36809304 71.27975334 11.3717893 66.98330846 11.37060547 62.68676758 C11.37040212 57.17730619 11.39771627 51.6683597 11.43214989 46.15902042 C11.45436998 41.92713544 11.45844453 37.69537539 11.45738602 33.46343803 C11.4597489 31.43202373 11.46861086 29.40060634 11.48405075 27.36924934 C11.50361359 24.52973311 11.49791118 21.69134038 11.48583984 18.85180664 C11.49707886 18.01063293 11.50831787 17.16945923 11.51989746 16.30279541 C11.48097489 12.70577474 11.34742646 10.47879984 9.20401001 7.52488708 C6.29790181 5.51423974 3.4203353 4.78930815 0 4 C0 2.68 0 1.36 0 0 Z M30.31860352 7.65200806 C28.64106871 10.6391366 28.63823133 12.63465403 28.65942383 16.05371094 C28.65965042 17.27467468 28.65987701 18.49563843 28.66011047 19.75360107 C28.67559433 21.06725647 28.69107819 22.38091187 28.70703125 23.734375 C28.71262936 25.09628838 28.71689845 26.45820781 28.71989441 27.82012939 C28.73132639 31.39757079 28.76077883 34.97464442 28.79400635 38.55194092 C28.82474309 42.20514959 28.83840741 45.85841793 28.85351562 49.51171875 C28.88565059 56.67464648 28.93682642 63.83727163 29 71 C34.08623122 71.07478624 39.17213442 71.12889926 44.25878906 71.16479492 C45.98508284 71.17977675 47.71133926 71.20016939 49.4375 71.22631836 C66.91342036 71.57445231 66.91342036 71.57445231 82.2421875 63.87890625 C90.24467232 55.32513914 90.44346534 44.78670242 90.28125 33.796875 C89.94892603 25.28273495 87.28047628 17.85226198 81 12 C73.71862466 7.28667962 65.68282926 5.69250719 57.10546875 5.6640625 C56.39143387 5.6574057 55.67739899 5.6507489 54.94172668 5.64389038 C53.44856312 5.63385207 51.95535548 5.62907059 50.4621582 5.62939453 C48.17521067 5.62497626 45.89012855 5.58844714 43.60351562 5.55078125 C42.14583988 5.5449201 40.68815506 5.54094602 39.23046875 5.5390625 C37.91457764 5.53084473 36.59868652 5.52262695 35.24291992 5.51416016 C32.00131406 5.67518203 32.00131406 5.67518203 30.31860352 7.65200806 Z " fill="#F4F3F4" transform="translate(1336,49)"/>
<path d="M0 0 C2.69500924 3.86284658 2.48383425 6.04513883 1.875 10.6875 C-1.15848933 12.70982622 -3.16523697 13.45984515 -6.81640625 13.40625 C-11.11695043 12.06733269 -13.69793124 8.39912547 -16.68359375 5.171875 C-22.63987915 -0.88924102 -30.6480616 -3.1790969 -39.01171875 -3.3828125 C-47.82679218 -2.9990577 -55.351861 -0.53451158 -61.625 5.875 C-65.6384382 11.10843219 -66.40337655 16.9501306 -65.75 23.375 C-61.51349472 32.01095307 -53.70105505 35.18542745 -45.01953125 38.15625 C-39.1959771 40.03742333 -33.28096582 41.58943053 -27.375 43.1875 C-1.6377881 50.18884712 -1.6377881 50.18884712 4.9609375 61.55859375 C8.18784318 68.91534661 7.78471173 77.09627646 4.9765625 84.5234375 C0.03899688 94.22347775 -8.98129995 99.46436871 -18.97265625 102.8359375 C-37.60954999 107.87043916 -59.66852193 107.30486631 -76.88671875 98.1328125 C-80.40421919 95.86147714 -83.11599505 93.39037187 -85.125 89.6875 C-85.67057085 86.05036103 -85.85936213 83.95223478 -84 80.75 C-81.16188613 79.14173547 -79.34457561 79.24559747 -76.125 79.6875 C-72.13722895 81.81431123 -69.1758669 84.55617999 -65.875 87.625 C-55.82140972 96.75843117 -45.45629782 98.40566617 -32.33789062 97.87109375 C-24.85082669 97.24992516 -18.21331275 94.15743621 -13.125 88.6875 C-10.4650204 83.89953672 -9.53000921 80.14158221 -10.125 74.6875 C-11.98394683 69.22000931 -15.30664981 66.57957338 -20.125 63.6875 C-22.77394598 62.49057135 -25.47393806 61.6045562 -28.25 60.75 C-29.01844238 60.50185547 -29.78688477 60.25371094 -30.57861328 59.99804688 C-35.77742718 58.34392616 -41.01961277 56.87578104 -46.28076172 55.43481445 C-72.59797954 48.20218707 -72.59797954 48.20218707 -78.875 37.625 C-79.48601563 36.61759766 -79.48601563 36.61759766 -80.109375 35.58984375 C-83.6207944 29.0126851 -83.24219231 18.95366961 -81.37109375 11.80859375 C-80.43157242 9.6311149 -79.40303864 7.68248715 -78.125 5.6875 C-77.2896875 4.3571875 -77.2896875 4.3571875 -76.4375 3 C-57.90209656 -15.53540344 -20.54593492 -15.20399184 0 0 Z " fill="#F4F3F4" transform="translate(774.125,57.3125)"/>
<path d="M0 0 C2.05078125 0.03255208 4.1015625 0.06510417 6.15234375 0.09765625 C12.0304464 11.72734278 17.70064005 23.44581927 23.27734375 35.22265625 C24.1116829 36.98114452 24.94607494 38.73960771 25.78051758 40.49804688 C30.5480058 50.55301243 35.27602101 60.62559188 39.965271 70.71725464 C41.88061107 74.83538952 43.80552871 78.9490424 45.73193359 83.06201172 C46.6312672 84.98403202 47.52778381 86.90737508 48.42041016 88.83251953 C49.48295378 91.11580074 50.56344582 93.38935652 51.65234375 95.66015625 C52.19890625 96.81644531 52.74546875 97.97273438 53.30859375 99.1640625 C55.82619594 103.16982361 58.8690355 105.95600212 63.15234375 108.09765625 C63.15234375 109.41765625 63.15234375 110.73765625 63.15234375 112.09765625 C49.62234375 112.09765625 36.09234375 112.09765625 22.15234375 112.09765625 C22.15234375 110.77765625 22.15234375 109.45765625 22.15234375 108.09765625 C22.79042969 107.89269531 23.42851563 107.68773437 24.0859375 107.4765625 C24.91222656 107.20714844 25.73851562 106.93773437 26.58984375 106.66015625 C27.41355469 106.39332031 28.23726562 106.12648438 29.0859375 105.8515625 C31.11453963 105.27610131 31.11453963 105.27610131 32.15234375 104.09765625 C32.63110254 94.50627931 32.63110254 94.50627931 23.15234375 77.09765625 C-1.59765625 76.60265625 -1.59765625 76.60265625 -26.84765625 76.09765625 C-27.17765625 77.74765625 -27.50765625 79.39765625 -27.84765625 81.09765625 C-28.50666099 82.67238646 -29.19528523 84.2349879 -29.91015625 85.78515625 C-31.99833685 90.92883642 -32.95327866 95.58911273 -31.84765625 101.09765625 C-29.27580181 104.9554379 -26.89368536 106.27213888 -22.53515625 107.41015625 C-21.31828125 107.63703125 -20.10140625 107.86390625 -18.84765625 108.09765625 C-18.84765625 109.41765625 -18.84765625 110.73765625 -18.84765625 112.09765625 C-31.71765625 112.09765625 -44.58765625 112.09765625 -57.84765625 112.09765625 C-57.84765625 110.77765625 -57.84765625 109.45765625 -57.84765625 108.09765625 C-56.98140625 107.78828125 -56.11515625 107.47890625 -55.22265625 107.16015625 C-46.58708061 101.88286003 -43.16327387 90.57499596 -39.3012085 81.63607788 C-37.55453094 77.59464983 -35.77920682 73.56579617 -34.0078125 69.53515625 C-33.65340088 68.72672775 -33.29898926 67.91829926 -32.93383789 67.08537292 C-29.79475689 59.93848747 -26.53467044 52.85373649 -23.22265625 45.78515625 C-19.75595632 38.38117843 -16.32159201 30.96610987 -12.96484375 23.51171875 C-12.64095673 22.79246719 -12.3170697 22.07321564 -11.98336792 21.33216858 C-10.40201886 17.81724127 -8.82478836 14.3005088 -7.25146484 10.78198242 C-6.68458583 9.51871048 -6.11769209 8.25544516 -5.55078125 6.9921875 C-5.05223633 5.87690674 -4.55369141 4.76162598 -4.04003906 3.61254883 C-2.38704441 0.12616514 -2.38704441 0.12616514 0 0 Z M-2.84765625 21.09765625 C-6.88444468 28.78901799 -10.32709335 36.70234073 -13.66918945 44.7121582 C-14.53892889 46.7941874 -15.41659611 48.8727526 -16.29492188 50.95117188 C-16.85855003 52.29537296 -17.42171737 53.63976738 -17.984375 54.984375 C-18.48670654 56.18280029 -18.98903809 57.38122559 -19.5065918 58.6159668 C-20.82467568 62.0379938 -21.84022672 65.57165289 -22.84765625 69.09765625 C-8.65765625 69.09765625 5.53234375 69.09765625 20.15234375 69.09765625 C12.96888647 53.02619251 5.59170355 37.05173764 -1.84765625 21.09765625 C-2.17765625 21.09765625 -2.50765625 21.09765625 -2.84765625 21.09765625 Z " fill="#F4F3F4" transform="translate(1679.84765625,48.90234375)"/>
<path d="M0 0 C2.97 0 5.94 0 9 0 C16.25679669 14.88589202 23.48950304 29.77938135 30.4375 44.8125 C30.9521582 45.92584717 31.46681641 47.03919434 31.99707031 48.1862793 C32.78742676 49.89618042 32.78742676 49.89618042 33.59375 51.640625 C37.16904216 59.37432245 40.76658044 67.0974618 44.3833313 74.81185913 C45.07480728 76.28815425 45.76501662 77.76504346 46.4538269 79.24258423 C53.09677266 96.45027602 53.09677266 96.45027602 66 108 C66 109.32 66 110.64 66 112 C52.47 112 38.94 112 25 112 C25 110.68 25 109.36 25 108 C28.3 107.01 31.6 106.02 35 105 C35.66097084 98.28930994 33.39146351 93.65711311 30.5 87.6875 C29.65323857 85.90116396 28.80933713 84.11346849 27.96875 82.32421875 C27.59169922 81.54135498 27.21464844 80.75849121 26.82617188 79.9519043 C26 78 26 78 26 76 C9.5 76 -7 76 -24 76 C-24.99 78.97 -25.98 81.94 -27 85 C-27.5625 86.5625 -28.125 88.125 -28.6875 89.6875 C-30.10531876 93.97080509 -30.77898423 97.63571453 -29.33203125 102.02734375 C-27.4583647 104.80212853 -25.51989145 105.22608185 -22.375 106.25 C-21.37210938 106.58515625 -20.36921875 106.9203125 -19.3359375 107.265625 C-18.17964844 107.62914062 -18.17964844 107.62914062 -17 108 C-17 109.32 -17 110.64 -17 112 C-29.87 112 -42.74 112 -56 112 C-56 110.68 -56 109.36 -56 108 C-55.46528076 107.78666016 -54.93056152 107.57332031 -54.37963867 107.35351562 C-49.01840372 104.99050397 -46.78178047 103.00057635 -44.3125 97.5 C-43.99474609 96.81260742 -43.67699219 96.12521484 -43.34960938 95.41699219 C-42.62331434 93.84064793 -41.90804553 92.25919414 -41.20166016 90.67382812 C-39.89213344 87.75998484 -38.53421359 84.87204759 -37.16796875 81.984375 C-30.16686962 67.13776769 -23.47937145 52.15651862 -16.83789062 37.14648438 C-11.33432745 24.71313893 -5.7102682 12.33998636 0 0 Z M-1 21 C-3.68916836 27.35308919 -6.37657312 33.70692222 -9.06274414 40.0612793 C-9.97704985 42.22356116 -10.89176146 44.38567145 -11.80688477 46.54760742 C-13.12101899 49.65238307 -14.43369962 52.75776974 -15.74609375 55.86328125 C-16.36175453 57.31653557 -16.36175453 57.31653557 -16.98985291 58.79914856 C-17.37017166 59.6998558 -17.75049042 60.60056305 -18.14233398 61.52856445 C-18.47764633 62.32132278 -18.81295868 63.11408112 -19.15843201 63.93086243 C-19.83574583 65.59615327 -20.43149779 67.29449338 -21 69 C-6.81 69 7.38 69 22 69 C20.56530752 64.69592257 19.10435659 60.86001555 17.20703125 56.78125 C16.66199951 55.60723633 16.11696777 54.43322266 15.55541992 53.22363281 C14.97465615 51.98232382 14.39367949 50.74111441 13.8125 49.5 C13.22301354 48.23537469 12.63357679 46.9707262 12.04418945 45.70605469 C8.16544984 37.40158148 4.20923465 29.14295576 0 21 C-0.33 21 -0.66 21 -1 21 Z " fill="#F4F3F4" transform="translate(1266,49)"/>
<path d="M0 0 C2.97 0 5.94 0 9 0 C14.33086257 10.5513952 19.4922257 21.1668434 24.5 31.875 C25.1866366 33.33921093 25.87349071 34.80331988 26.56054688 36.26733398 C27.98650392 39.30625378 29.41153756 42.34560398 30.8359375 45.38525391 C34.04345537 52.22785003 37.26347439 59.06456289 40.48266602 65.90167236 C41.7742444 68.64499788 43.06553535 71.38845802 44.35583496 74.13238525 C44.96842035 75.43331105 45.58241431 76.73357458 46.19787598 78.03314209 C47.85627254 81.53986578 49.48142104 85.05834907 51.0703125 88.59716797 C51.41864136 89.36274521 51.76697021 90.12832245 52.12585449 90.917099 C52.79228654 92.38300673 53.45020103 93.85282968 54.09777832 95.3271637 C56.70569522 101.02342357 59.99892586 105.55511794 66 108 C66 109.32 66 110.64 66 112 C52.47 112 38.94 112 25 112 C25 110.68 25 109.36 25 108 C25.63808594 107.80664062 26.27617188 107.61328125 26.93359375 107.4140625 C27.75988281 107.15367187 28.58617187 106.89328125 29.4375 106.625 C30.26121094 106.36976563 31.08492187 106.11453125 31.93359375 105.8515625 C34.17798016 105.19117773 34.17798016 105.19117773 35 103 C35.82992694 96.92644372 33.16407063 92.50613934 30.5 87.25 C29.65304771 85.54846521 28.80913775 83.84541157 27.96875 82.140625 C27.59169922 81.39329102 27.21464844 80.64595703 26.82617188 79.87597656 C26 78 26 78 26 76 C9.5 76 -7 76 -24 76 C-24.99 78.97 -25.98 81.94 -27 85 C-27.32484375 85.93070312 -27.6496875 86.86140625 -27.984375 87.8203125 C-29.6573128 92.8561967 -30.6744478 96.76735064 -29 102 C-25.49344711 105.81595462 -21.88832382 106.84980616 -17 108 C-17 109.32 -17 110.64 -17 112 C-29.87 112 -42.74 112 -56 112 C-56 110.68 -56 109.36 -56 108 C-54.4221875 107.505 -54.4221875 107.505 -52.8125 107 C-45.99201041 104.07839749 -43.16138584 95.64561947 -40.1875 89.25 C-39.81915039 88.46616943 -39.45080078 87.68233887 -39.07128906 86.87475586 C-34.65030038 77.38155039 -30.44501634 67.78949916 -26.21084595 58.2119751 C-21.04694607 46.53226928 -15.77605944 34.91196485 -10.33691406 23.35766602 C-6.7149935 15.64153127 -3.31600481 7.8515381 0 0 Z M0 21 C-4.56640442 29.78032561 -8.58334061 38.72819962 -12.43408203 47.83959961 C-13.38803685 50.09329931 -14.35193528 52.34258055 -15.31640625 54.59179688 C-15.92768064 56.03099645 -16.53837985 57.47044049 -17.1484375 58.91015625 C-17.43584808 59.57886246 -17.72325867 60.24756866 -18.01937866 60.9365387 C-19.22159562 63.80115968 -20 65.85848181 -20 69 C-6.14 69 7.72 69 22 69 C19.9438192 62.83145759 17.83961158 57.16303258 15.05859375 51.3515625 C14.69024918 50.57235443 14.3219046 49.79314636 13.94239807 48.99032593 C13.17081149 47.36072672 12.39677254 45.73228655 11.62036133 44.10498047 C10.43181569 41.6130823 9.2514578 39.11742965 8.07226562 36.62109375 C7.31818108 35.03102571 6.56364009 33.44117405 5.80859375 31.8515625 C5.45647324 31.10782379 5.10435272 30.36408508 4.74156189 29.59780884 C3.30295759 26.58813441 1.85366273 23.7804941 0 21 Z " fill="#F4F3F4" transform="translate(614,49)"/>
<path d="M0 0 C2.05078125 0.03255208 4.1015625 0.06510417 6.15234375 0.09765625 C11.81989767 11.31262415 17.29202855 22.60799726 22.65234375 33.97265625 C23.43320685 35.62441645 24.21421549 37.27610786 24.99536133 38.92773438 C28.88630173 47.15852969 32.76429009 55.39536533 36.6328125 63.63671875 C36.990336 64.39798065 37.3478595 65.15924255 37.71621704 65.943573 C39.40051931 69.53008133 41.08312503 73.11735917 42.76171875 76.70654297 C44.25128495 79.88843969 45.75630757 83.06266301 47.26947021 86.23339844 C48.17642914 88.14851447 49.06381339 90.07205478 49.95166016 91.99609375 C50.54508103 93.24908537 51.13928905 94.50170457 51.734375 95.75390625 C52.24846924 96.85541016 52.76256348 97.95691406 53.29223633 99.09179688 C55.80270272 103.14861039 58.83117457 105.93707166 63.15234375 108.09765625 C63.15234375 109.41765625 63.15234375 110.73765625 63.15234375 112.09765625 C49.62234375 112.09765625 36.09234375 112.09765625 22.15234375 112.09765625 C22.15234375 110.77765625 22.15234375 109.45765625 22.15234375 108.09765625 C22.79042969 107.89269531 23.42851562 107.68773437 24.0859375 107.4765625 C24.91222656 107.20714844 25.73851562 106.93773437 26.58984375 106.66015625 C27.41355469 106.39332031 28.23726563 106.12648438 29.0859375 105.8515625 C31.11453963 105.27610131 31.11453963 105.27610131 32.15234375 104.09765625 C32.63110254 94.50627931 32.63110254 94.50627931 23.15234375 77.09765625 C-1.59765625 76.60265625 -1.59765625 76.60265625 -26.84765625 76.09765625 C-27.83765625 79.39765625 -28.82765625 82.69765625 -29.84765625 86.09765625 C-30.23050781 87.01417969 -30.61335938 87.93070312 -31.0078125 88.875 C-32.62507048 93.15509205 -32.51199819 97.61334818 -31.84765625 102.09765625 C-28.63540263 106.08863802 -24.66680783 106.96373823 -19.84765625 108.09765625 C-19.84765625 109.41765625 -19.84765625 110.73765625 -19.84765625 112.09765625 C-32.38765625 112.09765625 -44.92765625 112.09765625 -57.84765625 112.09765625 C-57.84765625 110.77765625 -57.84765625 109.45765625 -57.84765625 108.09765625 C-56.96078125 107.74703125 -56.07390625 107.39640625 -55.16015625 107.03515625 C-49.00327804 103.43396333 -46.30118243 97.39865478 -43.52734375 90.98046875 C-43.23091476 90.30269379 -42.93448578 89.62491882 -42.6290741 88.92660522 C-41.98874967 87.46138517 -41.35184156 85.99466822 -40.7180481 84.52661133 C-38.98424164 80.51350614 -37.22220765 76.51282981 -35.4609375 72.51171875 C-35.09099167 71.6701825 -34.72104584 70.82864624 -34.33988953 69.96160889 C-29.25559727 58.43410665 -23.90965049 47.02700683 -18.58349609 35.60986328 C-17.82898033 33.99126744 -17.07458427 32.3726158 -16.3203125 30.75390625 C-15.95556824 29.97191864 -15.59082397 29.18993103 -15.21502686 28.38424683 C-11.96236227 21.39003896 -8.8012276 14.35559626 -5.67433167 7.30432129 C-5.31830368 6.50586792 -4.9622757 5.70741455 -4.59545898 4.88476562 C-4.28132553 4.17622437 -3.96719208 3.46768311 -3.64353943 2.7376709 C-2.3759156 0.12557693 -2.3759156 0.12557693 0 0 Z M-2.84765625 21.09765625 C-7.34106261 29.529992 -10.97892478 38.30622082 -14.63354492 47.12304688 C-15.67027728 49.62205262 -16.71468027 52.11775888 -17.75976562 54.61328125 C-18.42102912 56.20163307 -19.0818529 57.79016803 -19.7421875 59.37890625 C-20.05460892 60.12466919 -20.36703033 60.87043213 -20.68891907 61.63879395 C-22.28870265 65.24697593 -22.28870265 65.24697593 -22.84765625 69.09765625 C-8.98765625 69.09765625 4.87234375 69.09765625 19.15234375 69.09765625 C18.44363922 65.55413362 17.99762198 63.41077772 16.52587891 60.33642578 C16.19528473 59.63865021 15.86469055 58.94087463 15.52407837 58.22195435 C15.16679657 57.4822641 14.80951477 56.74257385 14.44140625 55.98046875 C14.07260345 55.20508759 13.70380066 54.42970642 13.32382202 53.63082886 C12.14690996 51.15889403 10.96245291 48.69067016 9.77734375 46.22265625 C8.60085596 43.76110406 7.42596585 41.29880054 6.25228882 38.83590698 C5.52298672 37.30675201 4.79183159 35.77847893 4.0585022 34.25125122 C1.98031512 29.90807444 0.01876429 25.53613973 -1.84765625 21.09765625 C-2.17765625 21.09765625 -2.50765625 21.09765625 -2.84765625 21.09765625 Z " fill="#F4F3F4" transform="translate(254.84765625,48.90234375)"/>
<path d="M0 0 C13.53 0 27.06 0 41 0 C41 1.32 41 2.64 41 4 C37.7 4.99 34.4 5.98 31 7 C30.7308511 12.74341027 31.20236651 16.43299494 33.68359375 21.734375 C33.97059647 22.3583165 34.25759918 22.982258 34.55329895 23.62510681 C35.50022891 25.67382794 36.46848021 27.7116464 37.4375 29.75 C38.10834315 31.18927956 38.77791534 32.62915211 39.44628906 34.06958008 C41.23591086 37.91533114 43.0450709 41.75156797 44.85931396 45.58575439 C46.41415688 48.8765571 47.95901066 52.172013 49.50428772 55.46731567 C52.82714053 62.5513652 56.16184728 69.62975508 59.515625 76.69921875 C59.97881889 77.67688454 59.97881889 77.67688454 60.45137024 78.67430115 C62.25630795 82.47261661 64.10707649 86.24478863 66 90 C73.4041295 72.85936193 80.77832901 55.70439045 87.95135498 38.46551514 C88.56347272 36.99724965 89.17839067 35.5301482 89.79620361 34.06427002 C90.66122148 32.00962467 91.51552457 29.95083544 92.3671875 27.890625 C92.85300293 26.72563477 93.33881836 25.56064453 93.83935547 24.36035156 C95.46283586 19.65997628 96.42777322 15.67818723 95.1875 10.8125 C91.96898727 6.67441221 87.89153671 5.56015242 83 4 C83 2.68 83 1.36 83 0 C95.54 0 108.08 0 121 0 C120.67 1.65 120.34 3.3 120 5 C119.08025391 5.44053711 118.16050781 5.88107422 117.21289062 6.33496094 C112.84974378 8.59610543 111.68491648 11.33155102 109.59375 15.640625 C109.21126099 16.39635803 108.82877197 17.15209106 108.43469238 17.9307251 C104.88048116 25.03527666 101.61803272 32.27066412 98.45355225 39.55560303 C96.76712593 43.43655325 95.05873699 47.30782966 93.3515625 51.1796875 C92.82286057 52.38028305 92.82286057 52.38028305 92.28347778 53.60513306 C87.57204872 64.27601568 82.66365984 74.85698439 77.75976562 85.44042969 C73.69119012 94.23440636 69.75927768 103.06883535 66 112 C63.03 112 60.06 112 57 112 C47.44858389 93.15687395 38.329019 74.09997991 29.4375 54.9375 C28.90415039 53.78894531 28.37080078 52.64039063 27.82128906 51.45703125 C25.0918517 45.56449213 22.39103931 39.66049107 19.7265625 33.73828125 C19.19490479 32.56467041 18.66324707 31.39105957 18.11547852 30.18188477 C17.11279958 27.96609199 16.11791704 25.74674697 15.13256836 23.52319336 C9.63381344 11.3490673 9.63381344 11.3490673 -1 4 C-0.67 2.68 -0.34 1.36 0 0 Z " fill="#F4F3F4" transform="translate(79,49)"/>
<path d="M0 0 C3.83052948 3.30788384 6.45411264 6.36233793 8.0625 11.1875 C7.96852867 15.4162097 6.98883681 18.01116319 4 21 C-2.94582185 21.79706152 -2.94582185 21.79706152 -6.5625 19.0625 C-7.92426598 17.35156325 -9.27437358 15.63054647 -10.578125 13.875 C-17.12377615 5.14746514 -24.11171855 -0.62776732 -35 -3 C-46.01417008 -4.07831036 -55.68643864 -3.29555011 -64.75 3.625 C-74.3097443 12.68988695 -77.79806182 25.29345155 -78.34765625 38.1015625 C-78.39233032 40.2966247 -78.42222777 42.49203636 -78.4375 44.6875 C-78.45272705 46.23642944 -78.45272705 46.23642944 -78.46826172 47.81665039 C-78.31773344 61.14688322 -74.89172795 73.79422652 -65.8125 83.875 C-56.4756678 92.54491562 -45.00930315 93.46158041 -32.98046875 93.27734375 C-18.8349704 92.73525697 -7.21988319 86.82989885 2.50390625 76.734375 C4.07270104 75.05925223 4.07270104 75.05925223 5 73 C6.65 73.33 8.3 73.66 10 74 C10.33 74.99 10.66 75.98 11 77 C3.38630326 90.08523473 -9.04923814 99.20191588 -23.44921875 103.24609375 C-40.51934468 106.87044392 -58.77329794 105.04722622 -74.04296875 96.24609375 C-87.04947482 87.3657896 -94.34046975 74.92826742 -97.4921875 59.640625 C-100.03292666 41.42547962 -97.19855604 24.32476546 -86.6328125 9.01953125 C-67.31128475 -15.7054746 -24.59781806 -16.07893354 0 0 Z " fill="#F4F3F4" transform="translate(1191,58)"/>
<path d="M0 0 C13.53 0 27.06 0 41 0 C41 1.32 41 2.64 41 4 C40.36191406 4.27714844 39.72382813 4.55429687 39.06640625 4.83984375 C38.24011719 5.20207031 37.41382813 5.56429687 36.5625 5.9375 C35.73878906 6.29714844 34.91507812 6.65679687 34.06640625 7.02734375 C32.05589883 7.83122323 32.05589883 7.83122323 31 9 C30.56736585 13.90663846 31.6240011 17.03299275 33.75390625 21.42578125 C34.04633209 22.03842331 34.33875793 22.65106537 34.64004517 23.28227234 C35.27326107 24.60588227 35.91169004 25.9270084 36.55477905 27.24584961 C38.2854345 30.79510574 39.97907525 34.36206109 41.6796875 37.92578125 C42.03377182 38.6647464 42.38785614 39.40371155 42.75267029 40.16506958 C47.01936938 49.08706589 51.07803374 58.10260776 55.1423645 67.11807251 C56.04562951 69.12088219 56.95023189 71.12308089 57.85546875 73.125 C58.27267937 74.05006599 58.27267937 74.05006599 58.69831848 74.99382019 C60.19381995 78.2915238 61.75824189 81.53617031 63.42578125 84.75 C65 88 65 88 65 91 C65.66 91 66.32 91 67 91 C67.12930405 90.26568756 67.25860809 89.53137512 67.39183044 88.77481079 C67.95615185 86.20005987 68.70116684 84.02156677 69.73071289 81.60302734 C70.08521011 80.7637973 70.43970734 79.92456726 70.8049469 79.05990601 C71.19029099 78.1609964 71.57563507 77.26208679 71.97265625 76.3359375 C72.57466103 74.91590927 72.57466103 74.91590927 73.18882751 73.4671936 C74.47562459 70.43455902 75.76890105 67.40473855 77.0625 64.375 C77.90603908 62.39081205 78.74914223 60.40643871 79.59179688 58.421875 C80.21349258 56.95889984 80.21349258 56.95889984 80.8477478 55.46636963 C81.68051595 53.5056019 82.51240602 51.54446101 83.34341431 49.58294678 C85.32353521 44.91470472 87.32147256 40.2565694 89.37060547 35.61816406 C89.92535805 34.34581406 89.92535805 34.34581406 90.49131775 33.04776001 C91.1753764 31.47989699 91.86855844 29.91596425 92.57325745 28.35726929 C95.07523968 22.57993422 96.98319815 16.4033782 95.1875 10.1875 C91.77075475 6.77075475 87.52160153 5.51851158 83 4 C83 2.68 83 1.36 83 0 C95.54 0 108.08 0 121 0 C120.67 1.65 120.34 3.3 120 5 C118.00717781 6.01422863 116.0064067 7.01291735 114 8 C111.99250855 10.58311824 111.99250855 10.58311824 110.4375 13.875 C109.94407104 14.84505981 109.94407104 14.84505981 109.44067383 15.8347168 C104.6112421 25.52302137 100.32822649 35.4828262 95.94598389 45.37892151 C91.35487126 55.73022034 86.65787474 66.0340929 81.98153687 76.34707642 C76.60393134 88.20929863 71.27232524 100.09058851 66 112 C63.03 112 60.06 112 57 112 C51.45876445 101.03393365 46.10162304 89.99413397 40.875 78.875 C40.13559854 77.30553533 39.39609474 75.73611888 38.65649414 74.16674805 C34.19272324 64.6891965 29.7501831 55.2017617 25.32183838 45.70761108 C24.44708691 43.83304446 23.57108888 41.95906477 22.69482422 40.08520508 C20.29073159 34.93875729 17.89610426 29.78997826 15.56640625 24.609375 C15.2094165 23.82457764 14.85242676 23.03978027 14.48461914 22.23120117 C13.86596582 20.86856852 13.25577256 19.50203023 12.65795898 18.13012695 C9.88683974 12.06357775 6.1972756 6.74180977 0 4 C0 2.68 0 1.36 0 0 Z " fill="#F4F3F4" transform="translate(435,49)"/>
<path d="M0 0 C1.43860886 -0.00639748 1.43860886 -0.00639748 2.90628052 -0.01292419 C4.48975784 -0.01224442 4.48975784 -0.01224442 6.10522461 -0.0115509 C7.21421112 -0.01490952 8.32319763 -0.01826813 9.46578979 -0.02172852 C13.14639391 -0.03125907 16.82695266 -0.03318258 20.50756836 -0.03425598 C23.05582702 -0.03746672 25.60408549 -0.04083065 28.15234375 -0.04434204 C33.49894717 -0.05033832 38.84553354 -0.05222409 44.19213867 -0.05158997 C50.37810244 -0.05098874 56.56397913 -0.06154908 62.74992085 -0.07733363 C68.69476379 -0.09196423 74.63958001 -0.09557863 80.58444214 -0.09498024 C83.11709957 -0.09616434 85.64975757 -0.10060995 88.18240356 -0.10831261 C91.71664769 -0.11805603 95.25066471 -0.11525702 98.78491211 -0.10920715 C100.36838943 -0.11763641 100.36838943 -0.11763641 101.9838562 -0.12623596 C103.42246506 -0.11994423 103.42246506 -0.11994423 104.89013672 -0.11352539 C106.14448769 -0.11434254 106.14448769 -0.11434254 107.42417908 -0.1151762 C109.44506836 0.13371277 109.44506836 0.13371277 111.44506836 2.13371277 C111.67424482 8.41885609 109.63602681 14.72856005 107.88256836 20.69621277 C107.53162109 21.923078 107.53162109 21.923078 107.17358398 23.17472839 C106.60386882 25.16291804 106.02539922 27.14859576 105.44506836 29.13371277 C104.12506836 28.80371277 102.80506836 28.47371277 101.44506836 28.13371277 C101.41928711 27.40925964 101.39350586 26.68480652 101.36694336 25.93840027 C100.95498491 18.91638129 99.97726048 14.53266241 94.74291992 9.49577332 C91.56229103 7.61044304 89.17184492 7.79396561 85.49194336 7.84074402 C84.8317218 7.84498886 84.17150024 7.8492337 83.49127197 7.85360718 C81.39211445 7.87033842 79.2939334 7.90797726 77.19506836 7.94621277 C75.76799894 7.96126693 74.3409144 7.97495406 72.91381836 7.98722839 C69.42392019 8.02022276 65.93458965 8.07196534 62.44506836 8.13371277 C60.24288913 12.5569248 60.16111956 16.67947114 60.1862793 21.51652527 C60.18277466 22.34803101 60.17927002 23.17953674 60.17565918 24.03623962 C60.16687684 26.77714963 60.17267866 29.51780026 60.17944336 32.25871277 C60.1780957 34.1677302 60.17615433 36.07674729 60.17364502 37.98576355 C60.1706985 41.98368096 60.17497626 45.9815089 60.18432617 49.97941589 C60.1957204 55.10071433 60.18915841 60.22180312 60.17718124 65.34309387 C60.16994994 69.28420081 60.17225643 73.22525814 60.17743683 77.16636658 C60.17876981 79.05459111 60.17713794 80.94282017 60.17247772 82.83103943 C60.16739165 85.47111418 60.17515199 88.11085067 60.1862793 90.75090027 C60.18223083 91.52923218 60.17818237 92.30756409 60.17401123 93.10948181 C60.21536451 98.41289223 60.61706096 102.30570537 64.44506836 106.13371277 C66.4119721 106.80663778 66.4119721 106.80663778 68.57006836 107.25871277 C69.84881836 107.54746277 71.12756836 107.83621277 72.44506836 108.13371277 C72.44506836 109.45371277 72.44506836 110.77371277 72.44506836 112.13371277 C58.58506836 112.13371277 44.72506836 112.13371277 30.44506836 112.13371277 C30.44506836 110.81371277 30.44506836 109.49371277 30.44506836 108.13371277 C31.07155273 107.94035339 31.69803711 107.74699402 32.34350586 107.54777527 C33.16077148 107.28738464 33.97803711 107.02699402 34.82006836 106.75871277 C35.63217773 106.50347839 36.44428711 106.24824402 37.28100586 105.98527527 C39.60966021 105.23516994 39.60966021 105.23516994 41.44506836 103.13371277 C42.75535721 99.11136065 42.59275891 95.05175699 42.59033203 90.86442566 C42.59369064 90.03306595 42.59704926 89.20170624 42.60050964 88.34515381 C42.61000313 85.59887699 42.61196187 82.85266123 42.61303711 80.10636902 C42.61625051 78.1959226 42.61961464 76.28547642 42.62312317 74.37503052 C42.62911021 70.37116424 42.63096347 66.36731954 42.63037109 62.3634491 C42.63026943 57.23429032 42.64392817 52.10526983 42.6611433 46.97614384 C42.67226348 43.03075526 42.6742903 39.08540013 42.67376137 35.13999748 C42.6749412 33.24897726 42.67936318 31.35795616 42.68709373 29.46695137 C42.69689509 26.82200051 42.69401513 24.17735015 42.68798828 21.53239441 C42.69360779 20.75249146 42.69922729 19.9725885 42.70501709 19.16905212 C42.68116982 15.04879953 42.29313621 11.84007081 40.44506836 8.13371277 C36.42512989 8.00945178 32.40594557 7.91906865 28.38452148 7.85905457 C27.01876333 7.83401997 25.65313769 7.79998059 24.2878418 7.7565155 C15.41413241 7.11373099 15.41413241 7.11373099 7.59741211 10.51652527 C3.13541057 15.94218958 2.94729172 21.3272646 2.44506836 28.13371277 C1.12506836 28.46371277 -0.19493164 28.79371277 -1.55493164 29.13371277 C-2.59116102 25.2209535 -3.60621837 21.30300501 -4.61743164 17.38371277 C-4.91198242 16.27254089 -5.2065332 15.16136902 -5.51000977 14.01652527 C-5.78393555 12.94660339 -6.05786133 11.87668152 -6.34008789 10.77433777 C-6.59669189 9.78981628 -6.8532959 8.8052948 -7.11767578 7.79093933 C-7.55579763 5.12845011 -7.57274802 3.61674514 -6.55493164 1.13371277 C-4.15855621 -0.06447495 -2.67584256 0.00536249 0 0 Z " fill="#F4F3F4" transform="translate(1507.554931640625,48.86628723144531)"/>
<path d="M0 0 C7.14918041 -0.0767712 14.2982525 -0.12889905 21.44775391 -0.16479492 C23.87422661 -0.17977713 26.30067272 -0.20016992 28.72705078 -0.22631836 C65.00978906 -0.60721989 65.00978906 -0.60721989 75.7421875 9.66796875 C81.01660507 15.38402416 82.45003539 20.77854985 82.2421875 28.48046875 C81.59504354 35.21285346 79.0361898 39.78829667 74.1171875 44.390625 C70.38836775 47.22507839 66.25488062 49.09471194 62 51 C62.85413046 52.18361988 63.70830752 53.36720613 64.5625 54.55078125 C65.1083374 55.30746094 65.6541748 56.06414062 66.21655273 56.84375 C67.40938195 58.49493262 68.60422079 60.14466527 69.80102539 61.79296875 C72.38806567 65.35906966 74.9697264 68.92155938 77.43359375 72.57421875 C78.09488281 73.53972656 78.75617188 74.50523437 79.4375 75.5 C80.27087891 76.75296875 80.27087891 76.75296875 81.12109375 78.03125 C83.50216789 80.52618007 85.70249048 81.14663607 89 82 C89 83.32 89 84.64 89 86 C86.66536557 86.10943599 84.33600203 86.18794302 82 86.25 C80.700625 86.29640625 79.40125 86.3428125 78.0625 86.390625 C73.36129598 86.15644369 69.72584984 84.91259801 66 82 C63.25123032 78.77230535 61.03667434 75.2903153 58.8125 71.6875 C57.63236827 69.83669231 56.45139497 67.98642093 55.26953125 66.13671875 C54.43736084 64.8206665 54.43736084 64.8206665 53.58837891 63.47802734 C50.09837285 57.39756857 50.09837285 57.39756857 45 53 C43.26131256 52.84733388 41.51752499 52.75067404 39.7734375 52.68359375 C38.7421875 52.64169922 37.7109375 52.59980469 36.6484375 52.55664062 C35.02808594 52.49766602 35.02808594 52.49766602 33.375 52.4375 C31.74304687 52.37272461 31.74304687 52.37272461 30.078125 52.30664062 C27.3855483 52.2003547 24.69287747 52.09831943 22 52 C22.08069751 56.27161792 22.19355745 60.54178934 22.3125 64.8125 C22.33505859 66.02744141 22.35761719 67.24238281 22.38085938 68.49414062 C22.4340332 70.23920898 22.4340332 70.23920898 22.48828125 72.01953125 C22.51446533 73.09307861 22.54064941 74.16662598 22.56762695 75.27270508 C22.7846196 78.00675906 22.7846196 78.00675906 24.36401367 79.83081055 C26.49637376 81.35474316 28.42900701 81.65256852 31 82 C31 83.32 31 84.64 31 86 C20.77 86 10.54 86 0 86 C-0.33 84.68 -0.66 83.36 -1 82 C0.670625 81.5978125 0.670625 81.5978125 2.375 81.1875 C6.21840951 80.34190981 6.21840951 80.34190981 8 77 C8.31916551 73.97438758 8.31916551 73.97438758 8.29052734 70.48071289 C8.29724457 69.82345718 8.30396179 69.16620148 8.31088257 68.48902893 C8.32987698 66.31682777 8.33378729 64.14493528 8.3359375 61.97265625 C8.34236402 60.46194837 8.34909227 58.95124175 8.35610962 57.4405365 C8.36808567 54.27388625 8.37179007 51.10734513 8.37060547 47.94067383 C8.37040216 43.8839561 8.39771424 39.827938 8.43214989 35.77138615 C8.45439198 32.65124806 8.45844387 29.53127913 8.45738602 26.41106987 C8.45974566 24.91553776 8.46858973 23.42000124 8.48405075 21.9245472 C8.5036597 19.83209399 8.49789507 17.74115958 8.48583984 15.64868164 C8.4901149 13.86355919 8.4901149 13.86355919 8.49447632 12.04237366 C7.89932104 8.38055071 6.91636101 7.22158859 4 5 C1.35815459 4.20318682 1.35815459 4.20318682 -1 4 C-0.67 2.68 -0.34 1.36 0 0 Z M24 5 C21.37797019 8.93304472 21.74851473 12.26625069 21.8046875 16.82421875 C21.8075174 17.68561966 21.81034729 18.54702057 21.81326294 19.43452454 C21.82445763 22.18565769 21.84956079 24.93646525 21.875 27.6875 C21.88503073 29.55272967 21.89415641 31.41796445 21.90234375 33.28320312 C21.92439462 37.8555942 21.95891951 42.42774189 22 47 C26.14577275 47.05863894 30.29143705 47.09380984 34.4375 47.125 C35.60216797 47.14175781 36.76683594 47.15851563 37.96679688 47.17578125 C50.63662721 47.45675165 50.63662721 47.45675165 61.4375 41.6875 C62.07558594 41.11386719 62.71367188 40.54023438 63.37109375 39.94921875 C66.9630932 35.65087888 67.29464957 31.54258327 67.3125 26.0625 C67.32925781 24.87785156 67.34601563 23.69320312 67.36328125 22.47265625 C66.81477704 17.22942786 64.84040454 13.23649095 60.875 9.75 C60.09769531 9.03070313 60.09769531 9.03070313 59.3046875 8.296875 C52.13074085 4.26001011 43.55600872 4.66320362 35.5625 4.6875 C34.47517578 4.67138672 33.38785156 4.65527344 32.26757812 4.63867188 C31.23181641 4.63802734 30.19605469 4.63738281 29.12890625 4.63671875 C28.19119385 4.63373779 27.25348145 4.63075684 26.28735352 4.62768555 C25.53252686 4.75054932 24.7777002 4.87341309 24 5 Z " fill="#F4F3F4" transform="translate(1219,208)"/>
<path d="M0 0 C7.14918041 -0.0767712 14.2982525 -0.12889905 21.44775391 -0.16479492 C23.87422661 -0.17977713 26.30067272 -0.20016992 28.72705078 -0.22631836 C64.68126983 -0.60377105 64.68126983 -0.60377105 76 9 C81.81421546 16.10626334 82.79143405 22.98453384 82 32 C80.24105255 38.65487123 75.5557745 43.18721358 70 47 C67.36602986 48.4036123 64.69542767 49.71889069 62 51 C62.38744385 51.52319824 62.7748877 52.04639648 63.17407227 52.58544922 C64.32441525 54.13987433 65.47401066 55.69485282 66.62304688 57.25024414 C67.91832921 59.00321246 69.21521095 60.75500006 70.51367188 62.50561523 C73.8027327 66.95476147 76.98065861 71.42736594 80 76.0625 C82.14516298 79.20109723 82.85481786 79.93136844 86.4375 81.625 C87.7059375 81.810625 87.7059375 81.810625 89 82 C89 83.32 89 84.64 89 86 C86.66536557 86.10943599 84.33600203 86.18794302 82 86.25 C80.700625 86.29640625 79.40125 86.3428125 78.0625 86.390625 C72.808665 86.16153336 68.18750009 84.34650994 64.5625 80.45800781 C63.26736862 78.68833221 62.12322097 76.88319462 61 75 C60.15500086 73.66272696 59.30994799 72.32548787 58.46484375 70.98828125 C58.05347168 70.32135254 57.64209961 69.65442383 57.21826172 68.96728516 C55.38424452 66.00565978 53.47939763 63.09626025 51.5625 60.1875 C50.94503906 59.23230469 50.32757812 58.27710938 49.69140625 57.29296875 C48.03840691 54.77982677 48.03840691 54.77982677 45 53 C42.48497823 52.63303819 42.48497823 52.63303819 39.67578125 52.5859375 C38.74934814 52.55032715 37.82291504 52.5147168 36.8684082 52.47802734 C35.10823364 52.42702881 35.10823364 52.42702881 33.3125 52.375 C27.7128125 52.189375 27.7128125 52.189375 22 52 C22.33 61.24 22.66 70.48 23 80 C25.64 80.66 28.28 81.32 31 82 C31 83.32 31 84.64 31 86 C20.77 86 10.54 86 0 86 C0 84.68 0 83.36 0 82 C1.134375 81.71125 2.26875 81.4225 3.4375 81.125 C4.613125 80.75375 5.78875 80.3825 7 80 C8.44054457 77.11891087 8.15123558 74.61433311 8.17700195 71.39477539 C8.18357315 70.71655228 8.19014435 70.03832916 8.19691467 69.33955383 C8.21664731 67.09225356 8.2283084 64.84502002 8.23828125 62.59765625 C8.24235678 61.83095549 8.2464323 61.06425472 8.25063133 60.2743206 C8.27148918 56.21844629 8.28579366 52.16260581 8.29516602 48.10668945 C8.30624664 43.91201116 8.34066569 39.717861 8.38033772 35.52336979 C8.40644213 32.302068 8.41485216 29.08089343 8.41844749 25.85949516 C8.42332736 24.31288512 8.43498107 22.76628128 8.45348549 21.21977425 C8.47775373 19.0576254 8.47693592 16.89686158 8.4699707 14.73461914 C8.47583694 13.5037709 8.48170319 12.27292267 8.48774719 11.004776 C8.28865227 7.91954519 8.28865227 7.91954519 6.11125183 6.12205505 C4.05676268 5.03016734 2.28428939 4.40790882 0 4 C0 2.68 0 1.36 0 0 Z M22 8 C21.73827246 11.01296236 21.65139887 13.81480568 21.70703125 16.82421875 C21.71127609 17.68561966 21.71552094 18.54702057 21.71989441 19.43452454 C21.73668752 22.18583431 21.77434044 24.93641162 21.8125 27.6875 C21.82754604 29.5527238 21.84123459 31.41795907 21.85351562 33.28320312 C21.88659307 37.85575098 21.9383794 42.4277513 22 47 C26.29153445 47.08807085 30.58283224 47.14074921 34.875 47.1875 C36.68097656 47.22520508 36.68097656 47.22520508 38.5234375 47.26367188 C46.67660206 47.33013789 54.8058723 47.2863939 61.47265625 42.0625 C61.99730469 41.381875 62.52195312 40.70125 63.0625 40 C63.88427734 38.9790625 63.88427734 38.9790625 64.72265625 37.9375 C68.35909236 32.42168253 67.49702709 25.32134459 67 19 C65.77193767 14.40353814 63.85945286 11.75951648 60.3125 8.625 C52.5907962 4.83699436 44.59844532 4.66041098 36.125 4.6875 C35.09375 4.67138672 34.0625 4.65527344 33 4.63867188 C32.01257813 4.63802734 31.02515625 4.63738281 30.0078125 4.63671875 C29.11723145 4.63373779 28.22665039 4.63075684 27.30908203 4.62768555 C24.48038448 5.08378237 23.76733139 5.79011603 22 8 Z " fill="#F4F3F4" transform="translate(747,208)"/>
<path d="M0 0 C13.53 0 27.06 0 41 0 C41 1.32 41 2.64 41 4 C40.28972656 4.17015625 39.57945313 4.3403125 38.84765625 4.515625 C37.92855469 4.75796875 37.00945312 5.0003125 36.0625 5.25 C35.14597656 5.48203125 34.22945312 5.7140625 33.28515625 5.953125 C32.53105469 6.29859375 31.77695313 6.6440625 31 7 C29.59696021 11.04293777 29.85234738 15.24000044 29.85473633 19.46875 C29.85137772 20.32122314 29.8480191 21.17369629 29.84455872 22.05200195 C29.83506483 24.86801615 29.83310655 27.6839708 29.83203125 30.5 C29.82881818 32.45768254 29.82545407 34.41536484 29.82194519 36.37304688 C29.81595826 40.47526608 29.8141049 44.57746423 29.81469727 48.6796875 C29.814799 53.93897969 29.80113311 59.19813722 29.78392506 64.45739746 C29.77281477 68.49968081 29.77077774 72.54193146 29.77130699 76.58422852 C29.77012594 78.52352361 29.76569715 80.46281953 29.75797462 82.40209961 C29.748192 85.11191295 29.75104567 87.82143206 29.75708008 90.53125 C29.74865082 91.73454956 29.74865082 91.73454956 29.74005127 92.9621582 C29.76264326 98.29343491 29.76264326 98.29343491 32 103 C36.9012808 106.61520536 44.0763259 105.33264941 49.90649414 105.31567383 C52.16277309 105.31253441 54.41771309 105.33591198 56.67382812 105.36132812 C69.09864236 105.51333214 69.09864236 105.51333214 80.12109375 100.38671875 C85.53454278 93.39903231 86.30968037 87.70545934 86 79 C87.32 79 88.64 79 90 79 C90.48109963 81.52047792 90.95992603 84.0413537 91.4375 86.5625 C91.63956055 87.61920898 91.63956055 87.61920898 91.84570312 88.69726562 C94.14577571 100.87082051 94.14577571 100.87082051 94.125 106.875 C94.12886719 108.01582031 94.12886719 108.01582031 94.1328125 109.1796875 C94 111 94 111 93 112 C90.10856849 112.09523905 87.24107936 112.12553027 84.34936523 112.11352539 C82.9885231 112.11374443 82.9885231 112.11374443 81.60018921 112.1139679 C78.58630015 112.11326841 75.57247207 112.10547434 72.55859375 112.09765625 C70.47494033 112.0957922 68.39128646 112.09436824 66.30763245 112.09336853 C60.81176554 112.08954234 55.31592487 112.0797112 49.82006836 112.06866455 C44.21663773 112.0584526 38.61320287 112.05387137 33.00976562 112.04882812 C22.00649886 112.03808902 11.00325161 112.02101139 0 112 C0 110.68 0 109.36 0 108 C0.62648438 107.81824219 1.25296875 107.63648438 1.8984375 107.44921875 C2.71570312 107.19785156 3.53296875 106.94648438 4.375 106.6875 C5.18710938 106.44386719 5.99921875 106.20023437 6.8359375 105.94921875 C9.33184629 105.08631815 9.33184629 105.08631815 11 102 C11.20535958 99.06156294 11.29368711 96.21712249 11.29052734 93.27758789 C11.29724457 92.38624649 11.30396179 91.49490509 11.31088257 90.57655334 C11.32990639 87.62519788 11.33378885 84.67406924 11.3359375 81.72265625 C11.34236193 79.67386277 11.34909002 77.62507022 11.35610962 75.57627869 C11.36809304 71.27975334 11.3717893 66.98330846 11.37060547 62.68676758 C11.37040212 57.17730619 11.39771627 51.6683597 11.43214989 46.15902042 C11.45436998 41.92713544 11.45844453 37.69537539 11.45738602 33.46343803 C11.4597489 31.43202373 11.46861086 29.40060634 11.48405075 27.36924934 C11.50361359 24.52973311 11.49791118 21.69134038 11.48583984 18.85180664 C11.49707886 18.01063293 11.50831787 17.16945923 11.51989746 16.30279541 C11.48097489 12.70577474 11.34742646 10.47879984 9.20401001 7.52488708 C6.29790181 5.51423974 3.4203353 4.78930815 0 4 C0 2.68 0 1.36 0 0 Z " fill="#F4F3F4" transform="translate(1747,49)"/>
<path d="M0 0 C14.73587758 -1.35637055 14.73587758 -1.35637055 19.5234375 1.51171875 C21.60315874 3.88540902 23.28265822 6.35183011 25 9 C26.24179512 10.59831049 27.48476478 12.19586338 28.74853516 13.77685547 C30.16314828 15.5477564 31.55471774 17.33519597 32.9453125 19.125 C36.22282984 23.31162542 39.60714514 27.40668776 43 31.5 C48.20007637 37.77929744 53.29655171 44.12531321 58.3046875 50.55859375 C61.82444653 55.0750121 65.41697118 59.53375179 69 64 C69.10208207 57.63213925 69.17174934 51.26449237 69.21972656 44.89599609 C69.2397439 42.73315546 69.2669663 40.57036827 69.30175781 38.40771484 C69.35071247 35.28469594 69.37306817 32.1623974 69.390625 29.0390625 C69.41127014 28.08448151 69.43191528 27.12990051 69.45318604 26.14639282 C69.45552661 19.01755395 68.28680617 11.90186116 63.55230713 6.28140259 C61.91180976 4.77056764 61.91180976 4.77056764 59 4 C59 2.68 59 1.36 59 0 C67.91 0 76.82 0 86 0 C86 1.32 86 2.64 86 4 C84.8553125 4.556875 84.8553125 4.556875 83.6875 5.125 C79.43818803 8.08963626 78.95326712 12.04596433 78 17 C77.55446706 22.35731008 77.51071534 27.69897777 77.48828125 33.0703125 C77.471404 34.60303151 77.45324974 36.13573693 77.43388367 37.66842651 C77.38670757 41.66971591 77.35669008 45.67095021 77.33044434 49.67242432 C77.30047378 53.76870601 77.25400086 57.86479842 77.20898438 61.9609375 C77.12332063 69.9738646 77.05581284 77.98680959 77 86 C75.55956963 86.0677252 74.11822023 86.11609485 72.67675781 86.15625 C71.47300507 86.19975586 71.47300507 86.19975586 70.24493408 86.24414062 C68 86 68 86 65.171875 83.5 C64.33621094 82.35348505 63.53027368 81.18490672 62.75 80 C61.81995319 78.70671602 60.88756487 77.41511343 59.953125 76.125 C59.47423828 75.44695312 58.99535156 74.76890625 58.50195312 74.0703125 C55.98065003 70.59491422 53.23347587 67.3091991 50.5 64 C45.99477683 58.4868555 41.56244325 52.92333007 37.18164062 47.31103516 C32.9670236 41.92586209 28.6550051 36.62172735 24.32617188 31.328125 C23.80603516 30.69132812 23.28589844 30.05453125 22.75 29.3984375 C22.29109375 28.83817871 21.8321875 28.27791992 21.359375 27.70068359 C19.86440355 25.83035832 18.42788644 23.92187215 17 22 C16.92352405 28.38623323 16.87122238 34.77234702 16.83520508 41.15893555 C16.82017964 43.3285768 16.79975347 45.49818798 16.77368164 47.66772461 C16.73702294 50.7980901 16.72021074 53.9280517 16.70703125 57.05859375 C16.69154739 58.01833603 16.67606354 58.97807831 16.66011047 59.96690369 C16.65835783 67.08499868 17.43743786 73.79679732 22 79.5 C24.02635231 81.1844662 24.02635231 81.1844662 27 82 C27 83.32 27 84.64 27 86 C18.09 86 9.18 86 0 86 C0 84.68 0 83.36 0 82 C0.598125 81.814375 1.19625 81.62875 1.8125 81.4375 C5.57148286 78.96731126 6.54388846 74.87506053 7.57394409 70.64053345 C8.04212343 67.73893492 8.12711972 65.00322609 8.12939453 62.06396484 C8.13254669 60.89280121 8.13569885 59.72163757 8.13894653 58.51498413 C8.1369223 57.25964874 8.13489807 56.00431335 8.1328125 54.7109375 C8.13376923 53.41556061 8.13472595 52.12018372 8.13571167 50.78555298 C8.13718237 48.0503825 8.13505359 45.31524478 8.13037109 42.58007812 C8.12466285 39.07511488 8.12796368 35.57022803 8.13394356 32.06526756 C8.1384245 28.71798473 8.13528836 25.3707225 8.1328125 22.0234375 C8.13584885 20.13436172 8.13584885 20.13436172 8.13894653 18.2071228 C8.13421829 16.45983383 8.13421829 16.45983383 8.12939453 14.67724609 C8.12859894 13.65086029 8.12780334 12.62447449 8.12698364 11.56698608 C8.1094174 8.87996984 8.1094174 8.87996984 7 6 C3.48809191 4.77030122 3.48809191 4.77030122 0 4 C0 2.68 0 1.36 0 0 Z " fill="#F4F3F4" transform="translate(990,208)"/>
<path d="M0 0 C13.53 0 27.06 0 41 0 C41 1.32 41 2.64 41 4 C40.37351562 4.24234375 39.74703125 4.4846875 39.1015625 4.734375 C38.28429687 5.06953125 37.46703125 5.4046875 36.625 5.75 C35.81289063 6.07484375 35.00078125 6.3996875 34.1640625 6.734375 C31.467388 8.31149149 31.05789954 9.06444421 30 12 C29.80897949 14.82578146 29.72678524 17.55183034 29.74121094 20.37695312 C29.7377063 21.2196727 29.73420166 22.06239227 29.73059082 22.9306488 C29.72179357 25.71426651 29.72761559 28.49762974 29.734375 31.28125 C29.73302777 33.21651254 29.73108676 35.15177475 29.72857666 37.08703613 C29.72562812 41.14220402 29.72991441 45.19728377 29.73925781 49.25244141 C29.75065216 54.45121526 29.74409126 59.64978261 29.73211288 64.84854889 C29.72488703 68.8445186 29.72718556 72.84043934 29.73236847 76.83641052 C29.73370296 78.75337244 29.73206427 80.6703388 29.72740936 82.58729553 C29.72233227 85.26599922 29.73007105 87.94436813 29.74121094 90.62304688 C29.73716248 91.41589584 29.73311401 92.20874481 29.72894287 93.02561951 C29.75114386 98.33295042 29.75114386 98.33295042 32 103 C37.61945122 106.17843119 44.29024321 105.33461872 50.5546875 105.31567383 C52.72968408 105.31252937 54.90329779 105.335942 57.078125 105.36132812 C65.77356494 105.40138318 73.76958765 105.31075749 80.875 99.75 C86.15955675 92.91116185 86.41128129 87.42365009 86 79 C87.32 79 88.64 79 90 79 C90.48164188 81.35368393 90.96036648 83.70790155 91.4375 86.0625 C91.57220703 86.71927734 91.70691406 87.37605469 91.84570312 88.05273438 C93.07455477 94.13704862 94.14416537 100.14625552 94.125 106.375 C94.12886719 107.65503906 94.12886719 107.65503906 94.1328125 108.9609375 C94 111 94 111 93 112 C90.10856849 112.09523905 87.24107936 112.12553027 84.34936523 112.11352539 C82.9885231 112.11374443 82.9885231 112.11374443 81.60018921 112.1139679 C78.58630015 112.11326841 75.57247207 112.10547434 72.55859375 112.09765625 C70.47494033 112.0957922 68.39128646 112.09436824 66.30763245 112.09336853 C60.81176554 112.08954234 55.31592487 112.0797112 49.82006836 112.06866455 C44.21663773 112.0584526 38.61320287 112.05387137 33.00976562 112.04882812 C22.00649886 112.03808902 11.00325161 112.02101139 0 112 C0 110.68 0 109.36 0 108 C0.62648438 107.80664062 1.25296875 107.61328125 1.8984375 107.4140625 C3.12433594 107.02347656 3.12433594 107.02347656 4.375 106.625 C5.59316406 106.24214844 5.59316406 106.24214844 6.8359375 105.8515625 C9.16459185 105.10145717 9.16459185 105.10145717 11 103 C12.31028885 98.97764788 12.14769055 94.91804422 12.14526367 90.73071289 C12.14862228 89.89935318 12.1519809 89.06799347 12.15544128 88.21144104 C12.16493477 85.46516422 12.16689351 82.71894846 12.16796875 79.97265625 C12.17118215 78.06220983 12.17454628 76.15176365 12.17805481 74.24131775 C12.18404185 70.23745147 12.18589511 66.23360677 12.18530273 62.22973633 C12.18520107 57.10057755 12.19885981 51.97155706 12.21607494 46.84243107 C12.22719512 42.89704249 12.22922195 38.95168736 12.22869301 35.00628471 C12.22987284 33.11526449 12.23429482 31.22424339 12.24202538 29.3332386 C12.25182673 26.68828774 12.24894677 24.04363738 12.24291992 21.39868164 C12.24853943 20.61877869 12.25415894 19.83887573 12.25994873 19.03533936 C12.23629569 14.948645 12.06270927 11.58403639 10 8 C6.71594107 6.32811545 3.48865594 5.16288531 0 4 C0 2.68 0 1.36 0 0 Z " fill="#F4F3F4" transform="translate(339,49)"/>
<path d="M0 0 C7.36487858 -0.05096602 14.72971119 -0.08584484 22.09472656 -0.10986328 C24.5970225 -0.11988281 27.09930684 -0.13350213 29.6015625 -0.15087891 C33.21096673 -0.17530561 36.82021531 -0.18652394 40.4296875 -0.1953125 C41.53738495 -0.20563507 42.6450824 -0.21595764 43.78634644 -0.22659302 C55.52746395 -0.22826572 68.24309674 1.33440625 77.0234375 9.99609375 C82.58634693 17.17360372 84.44654055 24.51027731 83.82421875 33.5546875 C82.53750963 41.89880118 78.68999702 48.35342325 71.875 53.375 C61.18382555 59.60464052 49.71303663 59.39429744 37.75 59.1875 C36.21485702 59.1724114 34.67969954 59.15873045 33.14453125 59.14648438 C29.4293798 59.11384278 25.71478667 59.06229647 22 59 C22.06005854 61.91884528 22.14708616 64.83261639 22.25 67.75 C22.26417969 68.575 22.27835938 69.4 22.29296875 70.25 C22.47947045 75.24076307 22.47947045 75.24076307 24.875 79.53125 C27.27334508 81.18892969 29.12029924 81.68003325 32 82 C32 83.32 32 84.64 32 86 C21.44 86 10.88 86 0 86 C0 84.68 0 83.36 0 82 C1.134375 81.71125 2.26875 81.4225 3.4375 81.125 C4.613125 80.75375 5.78875 80.3825 7 80 C8.44139596 77.11720808 8.14325114 74.61612758 8.16113281 71.39477539 C8.16609772 70.71655228 8.17106262 70.03832916 8.17617798 69.33955383 C8.19080303 67.09224439 8.19760161 64.8450055 8.203125 62.59765625 C8.20887553 61.03828428 8.21463327 59.47891233 8.22039795 57.91954041 C8.23090847 54.64858673 8.23675101 51.37765764 8.24023438 48.10668945 C8.24572373 43.91210772 8.26976068 39.71784984 8.29820633 35.52336979 C8.3168135 32.30206853 8.32203724 29.08084564 8.32357025 25.85949516 C8.32660094 24.31290348 8.33464346 22.76631331 8.34775543 21.21977425 C8.36477887 19.05780368 8.36294548 16.89662922 8.35644531 14.73461914 C8.36009094 13.5037709 8.36373657 12.27292267 8.36749268 11.004776 C8.24826533 8.02617814 8.24826533 8.02617814 6.64569092 6.12205505 C4.50295337 4.66110667 2.54664213 4.34414083 0 4 C0 2.68 0 1.36 0 0 Z M23.36825562 6.74281311 C21.81785211 9.30048612 21.63447204 10.62401595 21.65942383 13.58496094 C21.65965042 14.48559265 21.65987701 15.38622437 21.66011047 16.31414795 C21.67559433 17.27782288 21.69107819 18.2414978 21.70703125 19.234375 C21.71127609 20.22753723 21.71552094 21.22069946 21.71989441 22.24395752 C21.73667366 25.41291528 21.774325 28.58123478 21.8125 31.75 C21.82754779 33.89973039 21.84123603 36.04947076 21.85351562 38.19921875 C21.88657464 43.46636323 21.93676666 48.73313601 22 54 C25.96516109 54.07493036 29.93004014 54.12896449 33.89575195 54.16479492 C35.89744576 54.18705458 37.89894275 54.22520146 39.90039062 54.26367188 C48.09836832 54.32562133 55.61836797 54.36485932 62.33984375 49.203125 C68.97442996 41.09238391 69.98090355 33.33627118 69 23 C67.1032938 15.03598932 63.85353263 11.0334579 57 6.75 C50.60349673 4.35131127 43.53842544 4.74766033 36.8125 4.6875 C35.72001953 4.65849609 34.62753906 4.62949219 33.50195312 4.59960938 C32.45587891 4.59123047 31.40980469 4.58285156 30.33203125 4.57421875 C29.38046143 4.55963623 28.4288916 4.54505371 27.44848633 4.5300293 C24.89322243 4.77167621 24.89322243 4.77167621 23.36825562 6.74281311 Z " fill="#F4F3F4" transform="translate(505,208)"/>
<path d="M0 0 C1.97391676 1.4380292 3.3336569 2.5735093 4.625 4.64453125 C4.5625 8.51953125 4.5625 8.51953125 3.625 11.64453125 C-2.61582232 13.11296003 -2.61582232 13.11296003 -6.3125 10.83203125 C-8.375 8.64453125 -8.375 8.64453125 -8.375 6.64453125 C-8.95121094 6.35835937 -9.52742188 6.0721875 -10.12109375 5.77734375 C-11.54064986 5.06387534 -12.95119839 4.33190084 -14.34765625 3.57421875 C-21.61595867 -0.09389649 -28.85473865 -0.68465161 -36.6875 1.70703125 C-41.04220845 3.61557631 -43.94648016 6.59141538 -46.375 10.64453125 C-47.66479204 14.89325798 -47.54155622 17.06648319 -46.3125 21.33203125 C-42.39066814 28.03709862 -35.99973755 29.63122622 -28.9375 31.58203125 C-27.15195513 32.10022529 -25.36680173 32.61977002 -23.58203125 33.140625 C-22.70240723 33.39440918 -21.8227832 33.64819336 -20.91650391 33.90966797 C0.24072211 40.0271752 0.24072211 40.0271752 6.625 48.20703125 C8.48261444 54.59258088 9.21846389 62.48775615 6.0625 68.58203125 C-0.62937842 76.98977593 -8.65087151 81.3228957 -19.375 82.64453125 C-33.5868954 83.42345391 -47.64812876 83.84207732 -59.375 74.64453125 C-61.95774643 72.14249565 -62.31826491 71.11732363 -62.75 67.51953125 C-62.62625 66.57078125 -62.5025 65.62203125 -62.375 64.64453125 C-59.375 62.64453125 -59.375 62.64453125 -56.515625 62.75 C-52.78180948 63.81348726 -50.97780956 65.34765005 -48.125 67.95703125 C-40.64094362 74.30836559 -33.9701836 77.38575191 -24.05078125 76.96484375 C-17.02194017 76.12343504 -11.92767015 74.30087901 -7.375 68.64453125 C-5.2218974 65.80635055 -5.375 64.38863484 -5.375 60.70703125 C-5.92685082 57.40205799 -6.43770599 56.57192431 -8.75 53.89453125 C-14.53309584 49.82744749 -21.55618883 48.17153324 -28.25390625 46.203125 C-29.56270752 45.8172522 -29.56270752 45.8172522 -30.89794922 45.42358398 C-32.63531526 44.91561852 -34.37515487 44.41601574 -36.11767578 43.92602539 C-44.73100804 41.43669629 -53.89993939 38.21832684 -58.6875 30.14453125 C-61.40282143 24.20407294 -61.45037578 17.60325835 -59.75 11.34375 C-56.5600071 4.00961454 -50.47856564 -0.82869813 -43.1875 -3.79296875 C-29.54701186 -7.79163977 -12.45623931 -7.10907079 0 0 Z " fill="#F4F3F4" transform="translate(1406.375,212.35546875)"/>
<path d="M0 0 C9.63112712 -0.02312465 19.26224474 -0.04091571 28.89339352 -0.05181217 C33.36505549 -0.05704074 37.83669853 -0.06413789 42.30834961 -0.07543945 C46.62011973 -0.08626929 50.93187159 -0.09227704 55.24365425 -0.09487724 C56.89236298 -0.09673132 58.54107066 -0.1003516 60.18977165 -0.10573006 C62.49103872 -0.11294178 64.7922294 -0.11399089 67.09350586 -0.11352539 C69.06207802 -0.11685631 69.06207802 -0.11685631 71.07041931 -0.12025452 C74 0 74 0 75 1 C74.52545762 8.23677131 72.88043224 15.01046883 71 22 C69.68 22 68.36 22 67 22 C66.97421875 21.33613281 66.9484375 20.67226562 66.921875 19.98828125 C66.57023826 14.51393662 66.25886018 10.8830784 62 7 C56.79108219 5.26369406 51.20252148 5.77453707 45.7487793 5.75976562 C43.57366844 5.75004989 41.399499 5.71900944 39.22460938 5.6875 C37.83854726 5.68097033 36.45247841 5.67571972 35.06640625 5.671875 C33.80771729 5.6625293 32.54902832 5.65318359 31.25219727 5.64355469 C27.72090459 6.03058924 26.28792366 6.28521185 24 9 C23.354631 12.09010736 23.354631 12.09010736 23.390625 15.63671875 C23.36000977 16.80678467 23.32939453 17.97685059 23.29785156 19.18237305 C23.28206055 20.66906494 23.26626953 22.15575684 23.25 23.6875 C23.1675 28.410625 23.085 33.13375 23 38 C36.53 38 50.06 38 64 38 C64 39.65 64 41.3 64 43 C50.47 43 36.94 43 23 43 C23.061875 48.548125 23.12375 54.09625 23.1875 59.8125 C23.19418701 61.56022705 23.20087402 63.3079541 23.20776367 65.10864258 C23.23421057 66.49564412 23.26248794 67.88261249 23.29296875 69.26953125 C23.28898071 69.98830444 23.28499268 70.70707764 23.28088379 71.44763184 C23.29210687 73.7829765 23.29210687 73.7829765 24 77 C27.50927242 80.20189672 30.73956723 80.38423197 35.3671875 80.3984375 C36.58277344 80.40230469 37.79835938 80.40617187 39.05078125 80.41015625 C40.94376953 80.39275391 40.94376953 80.39275391 42.875 80.375 C44.75638672 80.39240234 44.75638672 80.39240234 46.67578125 80.41015625 C54.58782194 80.38503866 59.92443929 80.04992292 66.359375 75.234375 C68.53056142 72.27742588 68.81535453 69.8720456 69.25 66.25 C69.39953125 65.07953125 69.5490625 63.9090625 69.703125 62.703125 C69.80109375 61.81109375 69.8990625 60.9190625 70 60 C70.99 60 71.98 60 73 60 C74.9339046 68.28011581 76.62407956 76.44643891 76 85 C74.33834793 86.66165207 72.3348397 86.11959725 70.11598206 86.12442017 C69.41827194 86.12082489 68.72056183 86.11722961 68.00170898 86.11352539 C66.90421326 86.11374443 66.90421326 86.11374443 65.7845459 86.1139679 C63.35503216 86.11326867 60.92559417 86.10547585 58.49609375 86.09765625 C56.81600486 86.0957921 55.13591543 86.09436819 53.45582581 86.09336853 C49.02526357 86.08954307 44.5947339 86.07971256 40.16418457 86.06866455 C35.64657024 86.05845103 31.12895066 86.05387104 26.61132812 86.04882812 C17.74087107 86.03809031 8.87043824 86.02101356 0 86 C0 84.68 0 83.36 0 82 C1.670625 81.5978125 1.670625 81.5978125 3.375 81.1875 C7.21840951 80.34190981 7.21840951 80.34190981 9 77 C9.31916551 73.97438758 9.31916551 73.97438758 9.29052734 70.48071289 C9.29724457 69.82345718 9.30396179 69.16620148 9.31088257 68.48902893 C9.32987698 66.31682777 9.33378729 64.14493528 9.3359375 61.97265625 C9.34236402 60.46194837 9.34909227 58.95124175 9.35610962 57.4405365 C9.36808567 54.27388625 9.37179007 51.10734513 9.37060547 47.94067383 C9.37040216 43.8839561 9.39771424 39.827938 9.43214989 35.77138615 C9.45439198 32.65124806 9.45844387 29.53127913 9.45738602 26.41106987 C9.45974566 24.91553776 9.46858973 23.42000124 9.48405075 21.9245472 C9.5036597 19.83209399 9.49789507 17.74115958 9.48583984 15.64868164 C9.4901149 13.86355919 9.4901149 13.86355919 9.49447632 12.04237366 C8.89932104 8.38055071 7.91636101 7.22158859 5 5 C2.35815459 4.20318682 2.35815459 4.20318682 0 4 C0 2.68 0 1.36 0 0 Z " fill="#F4F3F4" transform="translate(1107,208)"/>
<path d="M0 0 C1.4540625 0.0309375 1.4540625 0.0309375 2.9375 0.0625 C7.93974606 9.92717779 12.80891748 19.85570703 17.625 29.8125 C17.92140381 30.4250061 18.21780762 31.03751221 18.52319336 31.6685791 C21.93857564 38.73487137 25.30685434 45.82036876 28.58984375 52.94921875 C28.88394638 53.58717377 29.17804901 54.22512878 29.48106384 54.88241577 C30.88695142 57.93531337 32.28543158 60.99117199 33.67456055 64.05175781 C37.58977775 73.63977484 37.58977775 73.63977484 44.6875 80.6875 C45.43 81.14125 46.1725 81.595 46.9375 82.0625 C46.9375 83.3825 46.9375 84.7025 46.9375 86.0625 C36.3775 86.0625 25.8175 86.0625 14.9375 86.0625 C14.9375 84.7425 14.9375 83.4225 14.9375 82.0625 C18.4025 81.0725 18.4025 81.0725 21.9375 80.0625 C23.00819294 76.86416505 22.92986132 75.28345524 21.50390625 72.2421875 C21.0253418 71.19224609 21.0253418 71.19224609 20.53710938 70.12109375 C20.19486328 69.40050781 19.85261719 68.67992187 19.5 67.9375 C15.9375 60.26964286 15.9375 60.26964286 15.9375 58.0625 C3.3975 58.0625 -9.1425 58.0625 -22.0625 58.0625 C-22.3925 59.7125 -22.7225 61.3625 -23.0625 63.0625 C-23.55467371 64.38601375 -24.07454331 65.6996458 -24.625 67 C-25.96215602 70.49109699 -26.5891528 73.28815493 -26.0625 77.0625 C-23.84950252 80.70743703 -19.99526966 81.09785838 -16.0625 82.0625 C-16.0625 83.3825 -16.0625 84.7025 -16.0625 86.0625 C-25.9625 86.0625 -35.8625 86.0625 -46.0625 86.0625 C-46.0625 84.7425 -46.0625 83.4225 -46.0625 82.0625 C-45.31436035 81.87413574 -44.5662207 81.68577148 -43.79541016 81.49169922 C-40.08716771 79.55244147 -38.99623357 76.85417736 -37.3359375 73.1953125 C-36.99992523 72.48956085 -36.66391296 71.7838092 -36.31771851 71.05667114 C-35.21642812 68.73253841 -34.13932475 66.39805601 -33.0625 64.0625 C-32.31016728 62.46132708 -31.55657169 60.86074696 -30.80175781 59.26074219 C-28.40553231 54.16437409 -26.04520368 49.05177454 -23.6875 43.9375 C-22.84798248 42.12166921 -22.00830033 40.30591452 -21.16845703 38.49023438 C-16.3103729 27.97908757 -11.4735661 17.45841585 -6.74072266 6.89013672 C-3.67525363 0.07500518 -3.67525363 0.07500518 0 0 Z M-4.0625 17.0625 C-5.72212592 20.74043401 -7.37591055 24.42093594 -9.0246582 28.10375977 C-9.58463791 29.35250005 -10.14612364 30.60056624 -10.70922852 31.84790039 C-11.52509884 33.65586902 -12.33484735 35.46659613 -13.14453125 37.27734375 C-13.63155518 38.36136475 -14.1185791 39.44538574 -14.62036133 40.56225586 C-16.30490682 44.65085054 -17.6641331 48.86739929 -19.0625 53.0625 C-8.5025 53.0625 2.0575 53.0625 12.9375 53.0625 C9.57559718 44.65067944 9.57559718 44.65067944 5.921875 36.3984375 C5.39335938 35.25761719 4.86484375 34.11679688 4.3203125 32.94140625 C3.78148437 31.78511719 3.24265625 30.62882812 2.6875 29.4375 C1.85605469 27.64505859 1.85605469 27.64505859 1.0078125 25.81640625 C-0.34663116 22.89734663 -1.70344629 19.97941538 -3.0625 17.0625 C-3.3925 17.0625 -3.7225 17.0625 -4.0625 17.0625 Z " fill="#F4F3F4" transform="translate(669.0625,207.9375)"/>
<path d="M0 0 C13.53 0 27.06 0 41 0 C41 1.32 41 2.64 41 4 C40.37351562 4.18175781 39.74703125 4.36351562 39.1015625 4.55078125 C38.28429688 4.80214844 37.46703125 5.05351563 36.625 5.3125 C35.81289062 5.55613281 35.00078125 5.79976562 34.1640625 6.05078125 C31.66815371 6.91368185 31.66815371 6.91368185 30 10 C29.79464042 12.93843706 29.70631289 15.78287751 29.70947266 18.72241211 C29.70275543 19.61375351 29.69603821 20.50509491 29.68911743 21.42344666 C29.67009361 24.37480212 29.66621115 27.32593076 29.6640625 30.27734375 C29.65763807 32.32613723 29.65090998 34.37492978 29.64389038 36.42372131 C29.63190696 40.72024666 29.6282107 45.01669154 29.62939453 49.31323242 C29.62959788 54.82269381 29.60228373 60.3316403 29.56785011 65.84097958 C29.54563002 70.07286456 29.54155547 74.30462461 29.54261398 78.53656197 C29.5402511 80.56797627 29.53138914 82.59939366 29.51594925 84.63075066 C29.49638641 87.47026689 29.50208882 90.30865962 29.51416016 93.14819336 C29.49730164 94.40995392 29.49730164 94.40995392 29.48010254 95.69720459 C29.51902511 99.29422526 29.65257354 101.52120016 31.79598999 104.47511292 C34.70209819 106.48576026 37.5796647 107.21069185 41 108 C41 109.32 41 110.64 41 112 C27.47 112 13.94 112 0 112 C0 110.68 0 109.36 0 108 C0.62648438 107.81824219 1.25296875 107.63648438 1.8984375 107.44921875 C2.71570312 107.19785156 3.53296875 106.94648438 4.375 106.6875 C5.18710938 106.44386719 5.99921875 106.20023437 6.8359375 105.94921875 C9.33184629 105.08631815 9.33184629 105.08631815 11 102 C11.19499113 99.09121835 11.27291315 96.2784726 11.25878906 93.36938477 C11.2622937 92.48779694 11.26579834 91.60620911 11.26940918 90.69790649 C11.27822319 87.77899335 11.27237798 84.86032193 11.265625 81.94140625 C11.26697187 79.9150335 11.26891258 77.88866107 11.27142334 75.86228943 C11.27437426 71.61283292 11.27007842 67.36346043 11.26074219 63.11401367 C11.24935497 57.66523063 11.25590274 52.21664478 11.26788712 46.767869 C11.27511276 42.58231622 11.2728144 38.39681021 11.26763153 34.21125603 C11.26629661 32.20218826 11.26793724 30.19311625 11.27259064 28.18405342 C11.27766658 25.37592442 11.26993018 22.56811496 11.25878906 19.76000977 C11.26283752 18.9281868 11.26688599 18.09636383 11.27105713 17.23933411 C11.28994562 11.78830618 11.28994562 11.78830618 9 7 C6.83718718 5.8774351 6.83718718 5.8774351 4.375 5.25 C3.55773438 5.00765625 2.74046875 4.7653125 1.8984375 4.515625 C1.27195312 4.34546875 0.64546875 4.1753125 0 4 C0 2.68 0 1.36 0 0 Z " fill="#F4F3F4" transform="translate(1455,49)"/>
<path d="M0 0 C1.226548 0.00303635 1.226548 0.00303635 2.47787476 0.00613403 C3.76315567 0.00350555 3.76315567 0.00350555 5.07440186 0.00082397 C7.9211527 -0.00359561 10.76784197 -0.00065618 13.61459351 0.00271606 C15.58375053 0.00204306 17.55290747 0.00107306 19.52206421 -0.00018311 C23.65480335 -0.00166022 27.78752093 0.00049492 31.92025757 0.00515747 C37.23033871 0.01085476 42.54036932 0.00757583 47.85044861 0.00158501 C51.91834904 -0.00202023 55.9862374 -0.00088219 60.05413818 0.0017128 C62.01265468 0.00238217 63.97117226 0.00155329 65.9296875 -0.00076675 C68.6619255 -0.00329267 71.39408047 0.00054645 74.12631226 0.00613403 C74.94401093 0.0041098 75.76170959 0.00208557 76.60418701 0 C82.18783105 0.02126611 82.18783105 0.02126611 83.30209351 1.13552856 C83.61815505 6.35712872 82.82103057 10.58901632 81.30209351 15.57302856 C80.74521851 17.42734497 80.74521851 17.42734497 80.17709351 19.31912231 C79.88834351 20.24853638 79.59959351 21.17795044 79.30209351 22.13552856 C77.98209351 22.13552856 76.66209351 22.13552856 75.30209351 22.13552856 C75.39490601 20.58865356 75.39490601 20.58865356 75.48959351 19.01052856 C75.28414218 14.76453458 74.68700543 12.63339938 72.30209351 9.13552856 C66.96652209 5.54752564 62.107182 5.77611455 55.92709351 5.94802856 C55.00025757 5.96156372 54.07342163 5.97509888 53.11849976 5.98904419 C50.84575352 6.02418975 48.57423504 6.07338725 46.30209351 6.13552856 C44.86069754 9.01832049 45.15884237 11.51940098 45.14096069 14.74075317 C45.13599579 15.41897629 45.13103088 16.0971994 45.12591553 16.79597473 C45.11129047 19.04328418 45.1044919 21.29052307 45.09896851 23.53787231 C45.09321798 25.09724429 45.08746023 26.65661624 45.08169556 28.21598816 C45.07118504 31.48694183 45.0653425 34.75787092 45.06185913 38.02883911 C45.05636977 42.22342085 45.03233282 46.41767872 45.00388718 50.61215878 C44.98528001 53.83346004 44.98005627 57.05468293 44.97852325 60.2760334 C44.97549257 61.82262508 44.96745005 63.36921525 44.95433807 64.91575432 C44.93731464 67.07772489 44.93914803 69.23889934 44.94564819 71.40090942 C44.94200256 72.63175766 44.93835693 73.8626059 44.93460083 75.13075256 C45.05382818 78.10935043 45.05382818 78.10935043 46.65640259 80.01347351 C48.79914013 81.4744219 50.75545138 81.79138774 53.30209351 82.13552856 C53.30209351 83.45552856 53.30209351 84.77552856 53.30209351 86.13552856 C43.07209351 86.13552856 32.84209351 86.13552856 22.30209351 86.13552856 C21.97209351 84.81552856 21.64209351 83.49552856 21.30209351 82.13552856 C22.97271851 81.73334106 22.97271851 81.73334106 24.67709351 81.32302856 C28.52050301 80.47743838 28.52050301 80.47743838 30.30209351 77.13552856 C30.60754794 74.10235291 30.60754794 74.10235291 30.56088257 70.60037231 C30.56438721 69.94151031 30.56789185 69.28264832 30.57150269 68.6038208 C30.58030238 66.42678275 30.57447725 64.2500699 30.56771851 62.07302856 C30.56906567 60.55992572 30.57100663 59.04682329 30.57351685 57.53372192 C30.57646571 54.36286294 30.57217814 51.19211664 30.56283569 48.02127075 C30.55144122 43.95568369 30.55800197 39.89036069 30.56998062 35.82478333 C30.57720566 32.70040902 30.57490834 29.57609738 30.56972504 26.45172119 C30.56839032 24.95259571 30.57003005 23.45346455 30.57468414 21.9543457 C30.57976002 19.85963864 30.57202463 17.76535995 30.56088257 15.67068481 C30.55929138 14.47838257 30.5577002 13.28608032 30.55606079 12.05764771 C30.52123043 8.94361279 30.52123043 8.94361279 28.30209351 6.13552856 C25.28429676 5.85847516 22.50250992 5.76376585 19.48959351 5.82302856 C18.68199585 5.81980591 17.87439819 5.81658325 17.04232788 5.81326294 C12.73883505 5.85203315 9.15411512 6.00198918 5.30209351 8.13552856 C1.38505283 12.70540935 0.70237501 16.33144674 0.30209351 22.13552856 C-0.68790649 22.13552856 -1.67790649 22.13552856 -2.69790649 22.13552856 C-3.37638857 19.95166438 -4.0401616 17.76322772 -4.69790649 15.57302856 C-5.06915649 14.3548645 -5.44040649 13.13670044 -5.82290649 11.88162231 C-6.69685422 8.1400336 -6.9295272 4.9620957 -6.69790649 1.13552856 C-4.88919188 -0.67318605 -2.40777343 0.00917035 0 0 Z " fill="#F4F3F4" transform="translate(874.6979064941406,207.86447143554688)"/>
</svg>
